<svg width="304" height="185" viewBox="0 0 304 185" fill="none" xmlns="http://www.w3.org/2000/svg">
<path d="M133.757 0.469249C84.5426 -2.61881 67.0859 21.6545 42.0731 46.7613C17.0608 71.8663 5.49862 98.3684 20.0336 136.093C34.569 173.817 68.8866 183.41 122.75 183.41C176.614 183.41 232.083 188.665 260.175 168.146C288.267 147.627 297.837 100.736 257.135 76.2014C233.162 61.7505 201.79 4.73839 133.757 0.469249Z" fill="#FFF2DB"/>
<mask id="mask0_50_8" style="mask-type:luminance" maskUnits="userSpaceOnUse" x="13" y="0" width="272" height="185">
<path d="M133.757 0.469249C84.5426 -2.61881 67.0859 21.6545 42.0731 46.7613C17.0608 71.8663 5.49862 98.3684 20.0336 136.093C34.569 173.817 68.8866 183.41 122.75 183.41C176.614 183.41 232.083 188.665 260.175 168.146C288.267 147.627 297.837 100.736 257.135 76.2014C233.162 61.7505 201.79 4.73839 133.757 0.469249Z" fill="white"/>
</mask>
<g mask="url(#mask0_50_8)">
<path d="M54.8923 175.483C54.3658 168.947 52.2454 162.739 50.131 156.578C48.0414 150.488 45.691 144.064 45.5861 137.551C45.5405 134.739 46.8232 129.022 50.8316 130.097C52.1862 130.46 53.0387 131.932 53.6507 133.076C54.4566 134.585 55.0885 136.191 55.6454 137.806C57.7467 143.9 58.1246 150.424 58.1088 156.82C58.0966 161.63 57.7616 166.463 58.1553 171.265C58.1788 171.551 58.6082 171.56 58.6073 171.265C58.5892 164.525 58.9658 157.795 60.155 151.153C60.7222 147.984 61.4906 144.854 62.3996 141.767C62.725 140.661 63.757 138.968 64.8915 138.674C66.5774 138.237 68.663 138.707 69.3111 140.527C71.733 147.325 69.6804 154.643 67.424 161.178C66.4717 163.936 65.5234 166.693 64.2989 169.341C63.3 171.503 62.3187 173.673 61.3586 175.852C61.077 176.491 60.7991 177.131 60.531 177.775C60.4189 178.045 60.8565 178.16 60.9668 177.895C62.6812 173.772 64.8142 169.811 66.3207 165.61C68.578 159.315 71.0992 152.85 70.8149 146.046C70.7521 144.542 70.4963 143.051 70.1143 141.597C69.7717 140.291 69.3672 139.299 68.1924 138.566C67.3657 138.049 66.3085 138.01 65.3724 138.125C64.18 138.272 63.771 138.59 63.1309 139.562C62.8864 139.933 62.3137 140.486 62.1935 140.883C61.9634 141.642 61.741 142.402 61.5268 143.165C61.0739 144.778 60.6761 146.408 60.315 148.044C59.6546 151.042 59.1778 154.078 58.8306 157.127C58.2964 161.818 58.1422 166.546 58.1549 171.265C58.3054 171.265 58.4564 171.265 58.6069 171.265C58.154 165.739 58.6159 160.171 58.5508 154.635C58.4771 148.373 57.7851 142.083 55.541 136.198C54.7183 134.041 53.7429 131.435 51.7812 130.056C49.7531 128.631 47.4954 130.198 46.388 131.967C44.9149 134.321 45.0075 137.455 45.305 140.099C45.6489 143.152 46.3839 146.166 47.2327 149.113C49.7554 157.878 53.6995 166.289 54.4403 175.484C54.4634 175.771 54.9158 175.774 54.8923 175.483Z" fill="#FFBC45"/>
<path d="M54.8516 175.41C54.7368 174.156 54.5998 172.909 54.3341 171.677C54.2803 171.428 53.8748 171.482 53.8902 171.737C53.9657 172.993 54.1451 174.236 54.3417 175.478C54.3869 175.766 54.8222 175.643 54.7775 175.358C54.5881 174.156 54.4159 172.953 54.3427 171.736C54.1948 171.756 54.0466 171.777 53.8988 171.797C54.156 172.989 54.2889 174.196 54.4001 175.409C54.4258 175.698 54.8783 175.7 54.8516 175.41Z" fill="#FFBC45"/>
<path d="M48.676 175.583C46.7654 170.531 42.7584 166.822 39.1993 162.918C37.2924 160.826 35.5146 158.612 34.2337 156.075C33.0192 153.671 31.3703 150.06 33.0241 147.515C34.4533 145.316 37.5794 147.098 39.1356 148.146C41.1208 149.482 42.687 151.275 44.1903 153.115C48.3564 158.215 51.4915 164.194 53.2932 170.527C53.7361 172.085 54.072 173.672 54.3305 175.271C54.3766 175.558 54.8123 175.436 54.7662 175.15C53.7682 168.986 51.4079 163.136 48.1187 157.843C45.564 153.732 42.3742 149.314 38.0314 146.943C36.6229 146.174 34.7878 145.583 33.3383 146.558C31.4991 147.795 31.7902 150.496 32.2648 152.326C33.619 157.551 37.3308 161.608 40.9215 165.435C43.8111 168.515 46.7233 171.692 48.2403 175.703C48.342 175.974 48.779 175.857 48.676 175.583Z" fill="#FFBC45"/>
<path d="M66.3433 141.543C63.3492 146.208 63.9165 152.159 63.0012 157.414C62.4751 160.432 61.3962 163.305 60.8452 166.314C60.263 169.494 59.6243 172.655 58.8672 175.799C58.799 176.082 59.2347 176.202 59.3029 175.919C60.0275 172.913 60.6662 169.888 61.2149 166.844C61.7311 163.982 62.7255 161.245 63.2792 158.392C63.8062 155.673 64.0331 152.945 64.289 150.193C64.5633 147.242 65.1089 144.302 66.7338 141.77C66.8916 141.525 66.5001 141.298 66.3433 141.543Z" fill="#FFBC45"/>
<path d="M49.4169 134.739C49.6203 138.147 50.7747 141.374 51.5598 144.672C52.4358 148.352 53.1495 152.079 53.8903 155.788C54.6117 159.399 55.259 163.027 56.0346 166.628C56.8351 170.343 57.4747 174.11 57.4936 177.92C57.495 178.211 57.947 178.211 57.9456 177.92C57.9285 174.492 57.4033 171.106 56.7302 167.752C55.9804 164.017 55.2364 160.282 54.5001 156.543C53.7936 152.959 53.0826 149.369 52.2848 145.804C51.4631 142.132 50.0944 138.517 49.8689 134.739C49.8517 134.45 49.3997 134.448 49.4169 134.739Z" fill="#FFBC45"/>
<path d="M38.1801 153.582C41.585 156.823 44.3851 160.613 46.9457 164.539C48.242 166.528 49.4168 168.612 50.5897 170.676C51.9019 172.985 52.6495 175.429 53.5996 177.891C53.7035 178.16 54.1406 178.043 54.0353 177.771C53.1779 175.548 52.5378 173.285 51.3911 171.184C50.1838 168.972 48.9105 166.76 47.5491 164.64C44.9289 160.559 42.0225 156.614 38.5001 153.262C38.289 153.062 37.9685 153.381 38.1801 153.582Z" fill="#FFBC45"/>
<path d="M38.8033 159.67C41.547 161.514 44.5546 162.962 47.1495 165.024C47.3751 165.204 47.6974 164.886 47.4691 164.705C44.8421 162.618 41.8082 161.146 39.0316 159.28C38.7884 159.117 38.5624 159.509 38.8033 159.67Z" fill="#FFBC45"/>
<path d="M46.3604 159.32C47.3648 160.644 47.965 162.349 48.5309 163.892C49.2261 165.787 49.7152 167.784 50.1694 169.749C50.235 170.033 50.6707 169.912 50.6051 169.628C50.1269 167.563 49.594 165.482 48.8631 163.49C48.3185 162.005 47.7141 160.361 46.7505 159.092C46.5769 158.863 46.1841 159.087 46.3604 159.32Z" fill="#FFBC45"/>
<path d="M61.2434 154.057C61.3984 155.966 62.3218 157.707 62.3828 159.63C62.3919 159.921 62.8439 159.922 62.8348 159.63C62.7734 157.704 61.8504 155.965 61.6954 154.057C61.6718 153.769 61.2194 153.766 61.2434 154.057Z" fill="#FFBC45"/>
<path d="M52.4162 138.167C51.7834 140.153 51.8693 142.318 51.6008 144.368C51.5633 144.656 52.0158 144.653 52.0528 144.368C52.3168 142.356 52.2314 140.236 52.852 138.288C52.9406 138.009 52.5044 137.891 52.4162 138.167Z" fill="#FFBC45"/>
<path d="M48.8224 146.407C49.815 147.807 50.6259 149.317 51.6484 150.695C52.5885 151.964 53.3574 153.188 53.7031 154.744C53.7664 155.028 54.2022 154.907 54.1389 154.623C53.8406 153.28 53.2823 152.274 52.5162 151.145C51.4011 149.502 50.3606 147.797 49.2125 146.179C49.0453 145.944 48.6534 146.169 48.8224 146.407Z" fill="#FFBC45"/>
<path d="M56.0833 151.881C55.6218 154.662 55.173 157.445 54.9072 160.254C54.8796 160.545 55.3321 160.541 55.3592 160.254C55.6214 157.485 56.0643 154.743 56.519 152C56.5665 151.716 56.1308 151.594 56.0833 151.881Z" fill="#FFBC45"/>
<path d="M68.0017 144.693C66.8844 147.613 64.9896 150.188 63.6675 153.013C63.5445 153.275 63.9342 153.505 64.0576 153.241C65.3968 150.379 67.3052 147.771 68.437 144.813C68.5419 144.541 68.1048 144.424 68.0017 144.693Z" fill="#FFBC45"/>
</g>
<mask id="mask1_50_8" style="mask-type:luminance" maskUnits="userSpaceOnUse" x="13" y="0" width="272" height="185">
<path d="M133.757 0.469249C84.5426 -2.61881 67.0859 21.6545 42.0731 46.7613C17.0608 71.8663 5.49862 98.3684 20.0336 136.093C34.569 173.817 68.8866 183.41 122.75 183.41C176.614 183.41 232.083 188.665 260.175 168.146C288.267 147.627 297.837 100.736 257.135 76.2014C233.162 61.7505 201.79 4.73839 133.757 0.469249Z" fill="white"/>
</mask>
<g mask="url(#mask1_50_8)">
<path d="M229.367 182.565C228.488 180.456 227.36 178.536 225.808 176.851C223.858 174.734 221.341 173.34 219.616 170.997C217.924 168.698 216.498 166.114 215.095 163.633C214.269 162.172 213.6 160.694 213.324 159.03C213.055 157.41 213.125 155.727 213.243 154.096C213.129 154.161 213.016 154.226 212.903 154.291C213.996 154.759 214.8 155.585 215.682 156.355C216.558 157.118 217.588 157.699 218.524 158.384C220.71 159.984 222.669 162.086 224.263 164.265C225.741 166.288 226.78 168.672 227.782 170.956C228.653 172.94 229.36 175.206 230.651 176.966C230.792 177.158 231.155 177.052 231.064 176.792C229.47 172.236 228.829 167.398 228.975 162.581C229.041 160.397 229.305 158.182 229.638 156.024C229.962 153.929 230.469 151.807 231.551 149.965C231.42 149.965 231.291 149.965 231.161 149.965C231.683 150.98 231.805 152.09 232.011 153.196C232.243 154.44 232.68 155.618 233.125 156.798C234.105 159.396 234.659 162.177 235.166 164.9C235.706 167.797 235.833 170.516 235.389 173.436C234.983 176.112 234.242 178.729 233.685 181.376C233.635 181.615 233.978 181.79 234.098 181.55C234.898 179.941 235.648 178.312 236.316 176.645C237.044 174.827 237.527 172.94 238.17 171.095C239.181 168.197 240.907 165.562 243.676 164.118C246.987 162.391 254.558 160.671 255.422 166.042C255.533 165.957 255.644 165.872 255.754 165.787C250.751 163.669 246.829 168.343 244.316 172.069C242.615 174.591 240.854 176.967 238.911 179.315C238.14 180.247 237.449 181.396 236.55 182.205C235.749 182.927 234.19 184.034 233.054 183.927C232.763 183.899 232.766 184.352 233.054 184.379C234.561 184.52 236.649 182.992 237.489 181.833C239.202 179.468 241.236 177.354 242.949 174.987C245.772 171.089 249.507 163.629 255.526 166.177C255.715 166.257 255.891 166.129 255.858 165.922C255 160.593 248.029 161.787 244.478 163.251C241.781 164.363 239.885 166.341 238.58 168.944C237.677 170.746 237.224 172.714 236.585 174.614C235.81 176.922 234.79 179.143 233.708 181.322C233.845 181.38 233.983 181.438 234.121 181.496C234.705 178.717 235.458 175.973 235.884 173.162C236.294 170.467 236.162 167.881 235.68 165.211C235.161 162.337 234.571 159.424 233.561 156.677C233.123 155.486 232.713 154.32 232.447 153.076C232.2 151.927 232.097 150.797 231.551 149.736C231.472 149.583 231.243 149.596 231.161 149.736C229.099 153.247 228.802 157.81 228.559 161.79C228.247 166.874 228.945 172.103 230.628 176.911C230.766 176.853 230.903 176.795 231.041 176.737C229.681 174.882 228.933 172.46 228.011 170.358C226.947 167.933 225.78 165.516 224.177 163.397C222.729 161.484 220.957 159.692 219.054 158.227C217.966 157.388 216.767 156.703 215.73 155.798C214.899 155.074 214.159 154.34 213.13 153.901C212.968 153.832 212.803 153.912 212.79 154.096C212.581 157.007 212.695 159.784 213.963 162.451C215.267 165.193 216.987 167.829 218.639 170.372C219.343 171.455 220.141 172.461 221.07 173.358C222.088 174.341 223.299 175.114 224.355 176.06C226.407 177.897 227.875 180.154 228.93 182.685C229.041 182.95 229.479 182.834 229.367 182.565Z" fill="#FFBC45"/>
<path d="M226.287 182.851C223.727 178.711 221.685 173.095 216.779 171.201C214.168 170.193 211.012 170.766 208.561 171.929C205.794 173.242 203.595 175.578 201.649 177.88C201.51 178.043 201.637 178.325 201.868 178.257C206.058 177.023 211.319 176.768 215.202 179.084C217.057 180.19 218.509 182.069 219.972 183.627C220.939 184.656 221.648 186.388 223.145 186.748C223.429 186.816 223.549 186.38 223.265 186.312C222.262 186.071 221.583 184.975 221.003 184.205C220.451 183.472 219.825 182.831 219.201 182.16C217.705 180.556 216.24 178.945 214.186 178.069C210.326 176.423 205.703 176.656 201.748 177.821C201.822 177.947 201.895 178.073 201.968 178.199C205.534 173.982 210.711 169.594 216.658 171.637C219.096 172.474 220.845 174.713 222.212 176.779C223.557 178.809 224.617 181.01 225.897 183.079C226.049 183.327 226.441 183.1 226.287 182.851Z" fill="#FFBC45"/>
<path d="M219.443 163.21C221.274 167.05 224.521 169.886 226.857 173.386C228.017 175.125 229.028 177.069 229.903 178.965C230.98 181.298 230.638 183.7 230.62 186.191C230.618 186.483 231.07 186.482 231.072 186.191C231.087 184.086 231.448 181.858 230.744 179.836C230.006 177.715 228.767 175.69 227.629 173.763C225.359 169.922 221.772 167.049 219.833 162.983C219.708 162.719 219.319 162.949 219.443 163.21Z" fill="#FFBC45"/>
<path d="M213.242 174.839C216.591 176.613 219.862 178.465 222.183 181.534C223.007 182.622 223.811 183.727 224.649 184.805C224.895 185.122 225.578 186.302 226.091 186.248C226.378 186.218 226.381 185.766 226.091 185.796C225.714 185.835 224.492 183.865 224.309 183.622C223.549 182.618 222.813 181.597 222.039 180.604C219.851 177.801 216.551 176.081 213.47 174.448C213.213 174.312 212.985 174.702 213.242 174.839Z" fill="#FFBC45"/>
<path d="M231.98 162.416C232.017 164.408 232.558 166.321 232.791 168.29C233.07 170.65 232.843 173.094 232.497 175.433C231.858 179.738 232.155 184.107 230.968 188.339C231.117 188.359 231.265 188.379 231.412 188.399C231.412 188.229 231.412 188.059 231.412 187.889C231.412 187.597 230.96 187.597 230.96 187.889C230.96 188.059 230.96 188.229 230.96 188.399C230.96 188.655 231.335 188.705 231.404 188.459C232.551 184.366 232.453 180.087 232.894 175.892C233.134 173.62 233.418 171.411 233.308 169.117C233.2 166.857 232.474 164.684 232.431 162.417C232.427 162.125 231.975 162.125 231.98 162.416Z" fill="#FFBC45"/>
<path d="M246.696 165.278C243.239 167.466 240.728 171.246 238.756 174.755C236.858 178.131 235.189 182.293 231.412 183.958C231.146 184.075 231.376 184.465 231.64 184.348C235.002 182.866 236.772 179.383 238.423 176.31C240.52 172.407 243.103 168.086 246.924 165.669C247.169 165.514 246.943 165.123 246.696 165.278Z" fill="#FFBC45"/>
</g>
<path d="M152.567 91.0312C152.567 93.4363 150.617 95.3866 148.212 95.3866C145.807 95.3866 143.857 93.4363 143.857 91.0312V88.0091C143.857 85.6045 145.807 83.6545 148.212 83.6545C150.617 83.6545 152.567 85.6045 152.567 88.0091V91.0312Z" fill="#FFBC45"/>
<path d="M196.937 138.578C195.737 132.712 190.538 116.849 177.874 111.116C165.209 105.383 153.344 110.05 148.945 112.715C144.546 115.381 139.481 125.78 137.215 135.512C134.948 145.243 127.216 145.111 121.217 147.243L124.016 157.375L185.872 157.775C185.872 157.775 185.872 157.775 186.006 156.175C202.136 155.242 198.138 144.443 196.937 138.578ZM133.682 154.109C136.148 154.109 147.146 145.843 149.412 146.11C150.545 152.175 150.679 155.375 150.812 155.776C150.946 156.175 134.348 159.108 133.682 154.109Z" fill="#FFBC45"/>
<path d="M155.655 115.516C154.856 119.337 151.567 142.712 157.167 158.087C161.521 158.442 168.009 158.087 168.009 158.087C166.765 149.999 164.276 127.602 169.43 114.805C164.276 114.893 155.655 115.516 155.655 115.516Z" fill="#FFE4B5"/>
<path d="M158.499 108.583C154.1 108.851 153.078 113.605 155.078 116.538C157.077 119.47 160.854 117.07 161.521 115.605C166.276 120.093 172.453 116.049 173.785 109.384C173.785 108.851 166.232 107.384 158.499 108.583Z" fill="#FFE4B5"/>
<path d="M171.031 84.488C170.831 80.0521 166.276 71.5875 155.478 72.0657C147.791 72.6573 146.858 79.9391 146.858 79.9391C146.591 80.7567 145.213 82.4861 145.213 82.4861C144.814 79.0739 146.971 70.0326 156.678 69.7903C167.609 69.5173 172.829 78.0723 173.031 84.2159C172.164 85.6487 171.031 84.488 171.031 84.488Z" fill="#FFBC45"/>
<path d="M149.585 76.0951C145.893 78.6245 143.681 82.834 145.553 87.02C147.424 91.2078 147.954 93.0519 146.14 96.3276C143.587 100.935 142.511 105.237 144.432 109.149C156.011 107.549 161.107 106.247 161.107 106.247C161.107 106.247 156.629 75.6065 149.585 76.0951Z" fill="#31241C"/>
<path d="M166.774 97.1782C166.774 97.1782 169.638 105.808 169.909 109.454C170.156 112.797 159.093 115.028 158.308 111.523C157.49 107.353 156.275 100.264 156.275 100.264" fill="#C97440"/>
<path d="M167.694 100.782L166.774 97.1782L156.275 100.264C156.275 100.264 156.649 102.442 157.128 105.172C157.908 105.321 158.713 105.392 159.543 105.354C162.961 105.203 165.912 103.412 167.694 100.782Z" fill="#AB5D2D"/>
<path d="M148.42 92.9856C148.676 98.7328 153.544 103.182 159.288 102.925C165.033 102.669 169.484 97.803 169.227 92.0554L168.736 81.0533C168.479 75.307 163.612 70.8566 157.867 71.1147C152.121 71.371 147.671 76.2367 147.928 81.983L148.42 92.9856Z" fill="#C97440"/>
<path d="M162.164 81.5937C160.85 80.8881 159.123 80.5604 157.749 81.2691C157.235 81.534 157.688 82.3083 158.202 82.0434C159.272 81.4911 160.697 81.8237 161.711 82.368C162.22 82.6414 162.673 81.8671 162.164 81.5937Z" fill="#31241C"/>
<path d="M149.606 83.0461C150.227 82.4581 151.117 82.2434 151.944 82.4133C152.509 82.5291 152.749 81.6648 152.182 81.5487C151.033 81.3132 149.834 81.5952 148.971 82.412C148.551 82.8106 149.187 83.4434 149.606 83.0461Z" fill="#31241C"/>
<path d="M155.811 91.0705C155.731 91.0705 155.651 91.0425 155.587 90.986L153.558 89.1992C153.476 89.1265 153.434 89.0184 153.445 88.909C153.457 88.7997 153.521 88.7029 153.616 88.6491L155.66 87.4988C155.824 87.407 156.03 87.4654 156.122 87.6281C156.214 87.7912 156.156 87.9978 155.993 88.0896L154.365 89.0053L156.035 90.4766C156.175 90.6004 156.19 90.8147 156.065 90.9552C155.999 91.0316 155.905 91.0705 155.811 91.0705Z" fill="#31241C"/>
<path d="M156.563 93.9464C156.016 93.9464 155.478 93.8022 155.06 93.5161C154.905 93.4103 154.866 93.1997 154.971 93.0451C155.076 92.891 155.287 92.8512 155.442 92.9561C156.018 93.3498 156.986 93.3687 157.646 93.0008C158.044 92.7789 158.509 92.3224 158.467 91.4057C158.458 91.2186 158.603 91.0599 158.79 91.0518C158.974 91.0414 159.136 91.1878 159.144 91.375C159.189 92.3603 158.774 93.1482 157.976 93.5934C157.552 93.8293 157.054 93.9464 156.563 93.9464Z" fill="#31241C"/>
<path d="M158.089 87.3182C158.336 87.9718 159.067 88.3022 159.721 88.0545C160.373 87.8082 160.705 87.0782 160.457 86.4242C160.21 85.7692 159.48 85.4388 158.826 85.686C158.172 85.9328 157.843 86.6637 158.089 87.3182Z" fill="#1A191F"/>
<path d="M150.521 87.7712C150.768 88.4239 151.498 88.7566 152.152 88.5089C152.805 88.2626 153.137 87.5303 152.89 86.8763C152.642 86.2227 151.912 85.8936 151.259 86.1413C150.604 86.3872 150.274 87.1172 150.521 87.7712Z" fill="#1A191F"/>
<path d="M150.847 87.4724C150.794 87.4724 150.741 87.4584 150.692 87.4286L149.457 86.6719C149.317 86.5861 149.273 86.4026 149.359 86.2624C149.445 86.1223 149.629 86.0789 149.769 86.1643L151.003 86.921C151.143 87.0069 151.188 87.1904 151.102 87.3305C151.046 87.4218 150.948 87.4724 150.847 87.4724Z" fill="#1A191F"/>
<path d="M159.816 87.0278C159.721 87.0278 159.629 86.983 159.571 86.8994C159.477 86.7643 159.511 86.579 159.646 86.4854L160.937 85.5904C161.072 85.4964 161.257 85.5308 161.351 85.6659C161.445 85.8011 161.411 85.9864 161.276 86.0804L159.985 86.9749C159.933 87.0106 159.874 87.0278 159.816 87.0278Z" fill="#1A191F"/>
<path d="M179.131 93.0515C177.404 89.3302 179.536 87.0196 178.617 83.4741C177.811 80.3729 174.12 80.4692 172.216 76.0762C169.299 69.3405 154.289 63.2765 148.693 76.9449C154.914 72.7264 161.291 74.9191 163.712 78.0379C168.593 84.327 163.584 86.9915 165.468 90.7314C166.841 93.456 167.741 95.2921 165.967 99.4161C164.193 103.54 166.676 107.462 166.676 107.462C172.485 106.819 179.052 106.248 185.018 105.237C185.018 95.1718 180.857 96.7733 179.131 93.0515Z" fill="#31241C"/>
<path d="M152.722 144.577C147.658 145.021 145.702 146.533 141.169 148.933C136.636 151.332 135.659 151.865 136.725 152.31C134.059 152.488 135.614 153.909 137.48 153.286C136.237 153.82 137.969 154.398 140.458 153.465C141.08 154.442 144.28 154 146.324 152.843C148.368 151.688 153.256 150.709 157.699 152.221C158.233 149.466 156.544 144.667 156.544 144.667L152.722 144.577Z" fill="#C97440"/>
<path d="M155.944 144.644C158.677 144.044 166.321 143.421 170.853 143.689C171.12 147.243 169.165 154.442 169.165 154.442L157.077 151.775C157.077 151.775 157.678 147.976 155.944 144.644Z" fill="#FFBC45"/>
<path d="M155.715 144.707C161.112 143.927 166.57 143.942 172.009 143.789C174.629 143.715 177.142 143.411 179.739 143.114C182.207 142.832 185.129 143.367 187.502 144.085C187.782 144.17 187.9 143.733 187.622 143.649C185.432 142.986 182.867 142.551 180.574 142.6C179.437 142.625 178.298 142.857 177.177 143.025C175.617 143.257 174.027 143.272 172.454 143.323C166.824 143.505 161.184 143.463 155.596 144.271C155.308 144.312 155.43 144.748 155.715 144.707Z" fill="#1F0E03"/>
<path d="M179.789 130.861C180.303 134.615 180.571 138.389 180.581 142.177C180.582 142.469 181.034 142.469 181.033 142.177C181.023 138.347 180.744 134.536 180.225 130.741C180.185 130.453 179.75 130.576 179.789 130.861Z" fill="#1F0E03"/>
<path d="M156.721 152.001C158.355 151.982 159.87 152.706 161.42 153.126C163.262 153.626 165.065 154.252 166.906 154.757C170.627 155.777 174.496 156.425 178.348 156.648C184.477 157.002 191.893 156.701 196.52 152.113C196.727 151.908 196.408 151.588 196.201 151.794C191.364 156.589 183.414 156.595 177.066 156.11C173.27 155.819 169.464 155.046 165.813 153.978C164.172 153.498 162.536 152.996 160.898 152.507C159.519 152.095 158.184 151.531 156.722 151.549C156.43 151.553 156.43 152.005 156.721 152.001Z" fill="#1F0E03"/>
<path d="M147.706 126.21C147.301 127.423 147.422 128.727 147.44 129.986C147.464 131.72 147.592 133.45 147.682 135.18C147.771 136.889 147.823 138.6 147.96 140.305C148.087 141.88 148.682 143.373 148.764 144.933C148.779 145.223 149.231 145.225 149.216 144.933C149.141 143.507 148.594 142.157 148.45 140.731C148.293 139.17 148.243 137.598 148.174 136.031C148.104 134.452 147.996 132.874 147.931 131.294C147.865 129.713 147.635 127.85 148.142 126.33C148.233 126.053 147.797 125.935 147.706 126.21Z" fill="#1F0E03"/>
<path d="M154.549 110.745C153.84 113.246 153.34 116.44 156.146 117.846C157.157 118.353 158.31 118.102 159.286 117.66C159.972 117.349 160.569 116.824 161.136 116.338C161.709 115.847 161.961 116.592 162.467 116.955C166.59 119.902 172.016 115.82 173.381 111.753C173.474 111.476 173.037 111.358 172.945 111.633C171.488 115.973 165.263 119.959 161.68 115.533C161.599 115.434 161.444 115.458 161.36 115.533C159.874 116.869 157.942 118.451 155.915 117.2C153.705 115.835 154.412 112.881 154.984 110.864C155.064 110.584 154.628 110.465 154.549 110.745Z" fill="#1F0E03"/>
<path d="M140.252 153.861C141.676 153.608 142.818 152.717 144.017 151.966C145.669 150.929 147.525 150.334 149.317 149.595C149.582 149.486 149.466 149.048 149.197 149.159C147.717 149.769 146.202 150.285 144.772 151.011C143.218 151.799 141.893 153.113 140.132 153.426C139.845 153.476 139.967 153.912 140.252 153.861Z" fill="#1F0E03"/>
<path d="M137.018 153.838C140.617 152.318 143.933 150.182 147.628 148.883C147.901 148.787 147.783 148.351 147.508 148.447C143.775 149.759 140.425 151.912 136.79 153.448C136.522 153.561 136.753 153.95 137.018 153.838Z" fill="#1F0E03"/>
<path d="M136.217 152.772C137.639 151.909 139.261 151.507 140.722 150.731C142.169 149.963 143.608 149.175 145.105 148.506C145.371 148.387 145.141 147.998 144.877 148.116C143.38 148.784 141.94 149.571 140.494 150.341C139.033 151.12 137.413 151.518 135.989 152.381C135.741 152.532 135.968 152.923 136.217 152.772Z" fill="#1F0E03"/>
<path d="M159.659 119.375C159.81 120.177 160.946 120.15 161.313 119.53C161.517 119.185 161.295 118.779 160.981 118.6C160.595 118.381 160.013 118.419 159.749 118.801C159.583 119.041 159.975 119.267 160.139 119.028C160.338 118.74 161.169 119.041 160.877 119.364C160.655 119.61 160.165 119.629 160.095 119.255C160.04 118.969 159.604 119.09 159.659 119.375Z" fill="#1F0E03"/>
<path d="M159.059 122.72C158.944 123.519 159.871 123.745 160.408 123.299C160.683 123.072 160.827 122.635 160.595 122.326C160.355 122.005 159.888 122.057 159.55 122.163C159.274 122.251 159.391 122.687 159.67 122.6C159.839 122.546 160.059 122.483 160.223 122.58C160.363 122.663 160.176 122.915 160.101 122.97C159.936 123.091 159.447 123.18 159.495 122.84C159.537 122.555 159.101 122.432 159.059 122.72Z" fill="#1F0E03"/>
<path d="M158.784 127.046C158.824 127.953 160.162 127.591 160.296 126.906C160.459 126.07 159.002 125.612 158.859 126.519C158.814 126.805 159.25 126.927 159.295 126.64C159.35 126.291 159.849 126.53 159.855 126.801C159.86 127.015 159.248 127.305 159.236 127.046C159.224 126.756 158.772 126.755 158.784 127.046Z" fill="#1F0E03"/>
<path d="M149.986 151.775C149.918 152.442 150.013 153.212 150.261 153.836C150.367 154.103 150.804 153.987 150.697 153.715C150.46 153.121 150.373 152.41 150.438 151.775C150.468 151.485 150.015 151.488 149.986 151.775Z" fill="#1F0E03"/>
<path d="M155.631 144.772C156.474 145.365 156.541 146.54 156.779 147.456C157.095 148.667 157.33 150.169 156.794 151.351C156.674 151.615 157.064 151.845 157.184 151.579C157.789 150.245 157.536 148.716 157.215 147.335C156.966 146.265 156.818 145.056 155.858 144.382C155.62 144.214 155.394 144.606 155.631 144.772Z" fill="#1F0E03"/>
<path d="M144.728 93.6373C144.018 98.9089 151.806 98.9261 155.168 98.7661C155.458 98.7526 155.459 98.3006 155.168 98.3141C152.2 98.4556 144.512 98.598 145.164 93.7575C145.202 93.4727 144.767 93.3498 144.728 93.6373Z" fill="#1F0E03"/>
<path d="M157.789 98.4741C157.789 99.2222 157.043 99.8292 156.122 99.8292C155.202 99.8292 154.457 99.2222 154.457 98.4741C154.457 97.7256 155.202 97.1177 156.122 97.1177C157.043 97.1181 157.789 97.7256 157.789 98.4741Z" fill="#FFBC45"/>
<path d="M156.678 69.7903C151.141 69.9295 148.063 72.929 146.513 76.1151C147.041 76.1735 147.612 76.3285 148.087 76.5531C149.234 74.5652 151.411 72.3794 155.478 72.0657C166.276 71.5875 170.831 80.0521 171.031 84.488C171.031 84.488 172.164 85.6487 173.031 84.2154C172.829 78.0723 167.609 69.5173 156.678 69.7903Z" fill="#FFBC45"/>
<path d="M176.541 91.0312C176.541 93.4363 174.591 95.3866 172.187 95.3866C169.78 95.3866 167.831 93.4363 167.831 91.0312V88.0091C167.831 85.6045 169.78 83.6545 172.187 83.6545C174.591 83.6545 176.541 85.6045 176.541 88.0091V91.0312Z" fill="#FFBC45"/>
<path d="M175.516 90.566C175.358 93.5058 171.412 94.1788 170.329 91.4189C170.006 90.5954 170.19 89.4283 170.19 88.5614C170.19 85.5533 174.326 85.034 175.376 87.7089C175.7 88.532 175.516 89.6991 175.516 90.566C175.516 90.8575 175.968 90.8575 175.968 90.566C175.968 88.7521 176.145 87.0024 174.425 85.8729C172.341 84.5042 169.858 86.3412 169.739 88.5614C169.642 90.3454 169.628 92.1692 171.281 93.2554C173.365 94.6241 175.848 92.7862 175.968 90.566C175.984 90.2745 175.531 90.2763 175.516 90.566Z" fill="#1F0E03"/>
<path d="M124.55 153.82C127.038 153.82 157.699 153.82 159.299 153.82C160.899 153.82 161.255 157.02 158.589 157.02C155.923 157.02 78.8691 157.02 78.8691 157.02C76.469 152.221 65.7154 122.892 64.6492 120.137C63.5829 117.382 64.5606 114.182 68.9151 114.182C73.2697 114.182 96.2878 114.182 99.4875 114.182C102.687 114.182 106.242 114.714 108.463 119.603C110.686 124.492 124.55 153.82 124.55 153.82Z" fill="#5F7E91"/>
<path d="M159.41 156.893C159.514 156.856 159.609 156.812 159.697 156.765C159.706 156.761 159.714 156.757 159.722 156.753C161.087 155.989 160.618 153.821 159.3 153.821C159.039 153.821 158.008 153.821 156.455 153.821C148.469 153.821 126.634 153.821 124.55 153.821C124.55 153.821 124.539 153.797 124.523 153.762C124.507 153.729 124.485 153.684 124.456 153.621C124.332 153.36 124.091 152.849 123.75 152.128C120.769 145.818 110.363 123.782 108.464 119.604C106.243 114.715 102.687 114.183 99.4884 114.183C98.9836 114.183 97.9837 114.183 96.6436 114.183C99.8433 114.183 103.398 114.715 105.62 119.604C107.842 124.492 121.706 153.821 121.706 153.821L122.906 156.934C122.906 156.934 124.404 156.969 126.796 157.021C139.243 157.021 150.595 157.021 155.745 157.021C157.32 157.021 158.325 157.021 158.589 157.021C158.749 157.021 158.896 157.007 159.034 156.986C159.123 156.972 159.202 156.948 159.281 156.925C159.323 156.913 159.37 156.906 159.41 156.893Z" fill="#49687A"/>
<path d="M95.6658 136.046C96.5432 138.216 95.5036 139.974 93.3439 139.974C91.1843 139.974 88.7218 138.216 87.8453 136.046C86.9684 133.876 88.0076 132.117 90.1673 132.117C92.3269 132.117 94.7889 133.876 95.6658 136.046Z" stroke="#1F0E03" stroke-miterlimit="10"/>
<path d="M200.068 159.501H74.7043V179.374C88.4664 182.303 107.015 184.421 125.281 184.652C150.286 184.968 176.215 184.684 200.068 183.524V159.501Z" fill="#F5CDB3"/>
<path d="M205.27 159.006C205.27 160.191 204.309 161.153 203.123 161.153H71.6488C70.4632 161.153 69.5018 160.191 69.5018 159.006C69.5018 157.82 70.4632 156.858 71.6488 156.858H203.123C204.309 156.858 205.27 157.82 205.27 159.006Z" fill="#C97440"/>
<path d="M59.5948 82.8747C62.5749 85.6983 65.0084 85.6983 65.003 82.8742C64.9967 80.0515 64.9872 75.4311 64.9818 72.6079C64.9754 69.7843 62.5374 67.4741 59.5627 67.4741C56.5881 67.4741 51.7205 67.4741 48.7464 67.4741C45.7722 67.4741 45.7772 69.7843 48.7568 72.6079C51.7373 75.4316 56.6148 80.0515 59.5948 82.8747Z" fill="#FFBC45"/>
<path d="M130.672 55.5508C130.672 65.1323 122.905 72.8999 113.323 72.8999H49.6355C40.054 72.8999 32.2869 65.1323 32.2869 55.5508V32.6954C32.2869 23.1148 40.054 15.3472 49.6355 15.3472H113.323C122.905 15.3472 130.672 23.1148 130.672 32.6954V55.5508Z" fill="#FFBC45"/>
<path d="M77.8608 44.4167V28.4658H79.7923V35.569H88.2974V28.4658H90.2289V44.4167H88.2974V37.2825H79.7923V44.4167H77.8608ZM77.8608 71.4167V55.4658H87.4874V57.1793H79.7923V62.569H86.9889V64.2825H79.7923V69.7033H87.612V71.4167H77.8608ZM90.9689 71.4167V55.4658H92.9004V69.7033H100.315V71.4167H90.9689ZM77.8608 98.4167V82.4658H83.2504C84.5018 82.4658 85.5247 82.6917 86.3191 83.1434C87.1187 83.59 87.7106 84.1949 88.0949 84.9582C88.4791 85.7214 88.6712 86.573 88.6712 87.5128C88.6712 88.4526 88.4791 89.3068 88.0949 90.0752C87.7158 90.8437 87.1291 91.4564 86.3347 91.9133C85.5402 92.3651 84.5225 92.5909 83.2816 92.5909H79.4185V90.8775H83.2193C84.076 90.8775 84.764 90.7295 85.2832 90.4335C85.8025 90.1375 86.1789 89.7377 86.4126 89.2341C86.6514 88.7252 86.7708 88.1515 86.7708 87.5128C86.7708 86.8741 86.6514 86.303 86.4126 85.7993C86.1789 85.2957 85.7999 84.9011 85.2754 84.6155C84.751 84.3247 84.0552 84.1793 83.1881 84.1793H79.7923V98.4167H77.8608ZM93.9635 82.4658L93.8078 93.9306H92.0008L91.8451 82.4658H93.9635ZM92.9043 98.5414C92.5201 98.5414 92.1904 98.4038 91.9152 98.1286C91.64 97.8534 91.5024 97.5237 91.5024 97.1394C91.5024 96.7552 91.64 96.4255 91.9152 96.1503C92.1904 95.8751 92.5201 95.7375 92.9043 95.7375C93.2885 95.7375 93.6182 95.8751 93.8934 96.1503C94.1686 96.4255 94.3062 96.7552 94.3062 97.1394C94.3062 97.3939 94.2413 97.6275 94.1115 97.8404C93.9869 98.0533 93.8182 98.2246 93.6053 98.3544C93.3976 98.4791 93.1639 98.5414 92.9043 98.5414Z" fill="#C97440"/>
<path d="M121.372 37.9368H76.954V40.8255H121.372V37.9368Z" fill="#FFF2DB"/>
<path d="M115.311 44.9536H76.954V47.8414H115.311V44.9536Z" fill="#FFF2DB"/>
<path d="M102.396 51.9714H76.954V54.8593H102.396V51.9714Z" fill="#FFF2DB"/>
<path d="M118.103 58.9868H76.954V61.876H118.103V58.9868Z" fill="#FFF2DB"/>
<path d="M68.1368 60.8054C66.8138 57.5189 62.2337 55.1698 59.8941 55.2015H51.9923C49.3942 55.446 45.0726 57.5189 43.7491 60.8054C46.8435 63.8686 51.162 65.7724 55.9432 65.7724C60.724 65.7724 65.042 63.8686 68.1368 60.8054Z" fill="#31241C"/>
<path d="M52.7155 48.4543C52.7155 48.4543 51.9588 54.6716 51.4363 58.1864C51.0548 60.7542 60.2698 61.4756 60.5496 58.7075C60.7941 55.4246 61.0752 49.8605 61.0752 49.8605" fill="#C97440"/>
<path d="M52.3408 51.311L52.7155 48.4543L61.0753 49.8605C61.0753 49.8605 60.988 51.57 60.8714 53.7138C60.2852 53.8996 59.6723 54.0293 59.0318 54.0772C56.388 54.2748 53.9536 53.1692 52.3408 51.311Z" fill="#AB5D2D"/>
<path d="M66.4454 43.5381C66.7781 47.9817 63.4455 51.8517 59.0028 52.1848C54.5601 52.5161 50.6887 49.184 50.3569 44.7399L49.7205 36.2324C49.3878 31.7906 52.7213 27.9183 57.1636 27.5879C61.6068 27.2548 65.4777 30.5874 65.8099 35.0296L66.4454 43.5381Z" fill="#C97440"/>
<path d="M55.4623 37.1223C56.5936 36.8828 57.5017 36.3783 58.1801 35.4314C58.5178 34.9604 57.7394 34.5129 57.4059 34.9785C56.8666 35.7311 56.11 36.0696 55.2236 36.2576C54.6582 36.3774 54.8982 37.2417 55.4623 37.1223Z" fill="#31241C"/>
<path d="M64.5899 35.3586C63.9567 35.2397 63.5675 34.9392 63.257 34.3769C62.9776 33.8706 62.2029 34.3231 62.4827 34.8298C62.8954 35.5769 63.5056 36.0646 64.3513 36.2237C64.9172 36.3295 65.1581 35.4653 64.5899 35.3586Z" fill="#31241C"/>
<path d="M60.5531 42.8249C60.4726 42.8249 60.3922 42.7964 60.3276 42.7386C60.1879 42.6138 60.1761 42.3996 60.3009 42.2599L61.3785 41.0544L60.1413 40.5414C59.9682 40.4695 59.8864 40.2711 59.9578 40.0984C60.0292 39.9253 60.2277 39.843 60.4008 39.9149L62.0791 40.611C62.1808 40.653 62.2553 40.7416 62.2797 40.8487C62.3042 40.9559 62.2752 41.068 62.202 41.1502L60.8062 42.7119C60.7389 42.7869 60.6462 42.8249 60.5531 42.8249Z" fill="#31241C"/>
<path d="M58.5156 46.2536C58.4094 46.2536 58.3045 46.2038 58.2385 46.1103C58.1305 45.9575 58.1666 45.746 58.3194 45.6379C59.6546 44.6942 60.8524 44.3145 61.8839 44.5098C62.0679 44.5446 62.1885 44.7222 62.1537 44.9062C62.1185 45.0897 61.9417 45.2094 61.7573 45.176C60.9162 45.016 59.8901 45.3577 58.7113 46.1916C58.6516 46.2337 58.5834 46.2536 58.5156 46.2536Z" fill="#31241C"/>
<path d="M58.4867 40.0708C58.3569 40.596 57.8254 40.9174 57.2993 40.7881C56.7749 40.6584 56.4522 40.1268 56.5833 39.6007C56.7126 39.0746 57.2432 38.7532 57.7693 38.8838C58.2946 39.0127 58.6164 39.5451 58.4867 40.0708Z" fill="#1A191F"/>
<path d="M64.3495 39.7208C64.2198 40.2447 63.6891 40.5688 63.1626 40.4381C62.6373 40.3098 62.3155 39.7759 62.4452 39.2507C62.5745 38.7255 63.1065 38.4046 63.6322 38.5357C64.1579 38.6645 64.4797 39.1956 64.3495 39.7208Z" fill="#1A191F"/>
<path d="M51.9033 42.6047C52.2852 44.1763 51.3211 45.761 49.7481 46.142C48.1756 46.5244 46.5918 45.5603 46.2099 43.9873L45.9916 43.0888C45.6096 41.5163 46.5742 39.9329 48.1467 39.5505C49.7183 39.1686 51.303 40.1336 51.685 41.7056L51.9033 42.6047Z" fill="#C97440"/>
<path d="M47.484 39.8434C46.7956 37.8822 43.4391 29.9039 48.4305 29.6625C48.7401 26.5302 53.0947 24.8781 58.5332 23.8114C63.9721 22.7451 67.3625 25.2917 66.9494 27.8387C66.5363 30.3862 63.1969 31.315 60.5468 30.5579C59.7897 33.3115 56.1407 32.3831 55.3493 31.8317C54.7382 34.4994 51.7084 35.1448 52.0533 37.0035C52.3977 38.8625 52.5523 40.7551 52.621 41.1343C52.6897 41.5135 51.1068 42.2534 50.7624 41.4954C50.418 40.7388 49.0588 39.3792 47.484 39.8434Z" fill="#31241C"/>
<path d="M62.5184 83.4071C65.8189 84.062 63.9278 72.8642 63.9056 71.176C63.8306 71.251 63.7551 71.3265 63.6796 71.402C70.7828 71.4653 77.8878 71.4838 84.9914 71.4214C90.0692 71.3771 95.1429 71.2469 100.222 71.2474C103.344 71.2474 106.451 71.1321 109.57 71.0119C112.914 70.8826 116.248 70.8939 119.507 70.0279C125.74 68.3718 128.01 61.7807 128.653 55.9965C128.685 55.7067 128.233 55.7103 128.201 55.9965C127.723 60.2896 126.422 64.994 122.968 67.8538C120.367 70.008 116.533 70.2815 113.305 70.4379C110.091 70.5943 106.862 70.7303 103.644 70.7764C93.4637 70.9224 83.2756 71.0218 73.0939 70.9988C69.9561 70.9916 66.8174 70.9776 63.6796 70.95C63.5576 70.9491 63.4523 71.0535 63.4536 71.176C63.4721 72.5998 64.9443 83.4288 62.6382 82.9714C62.3539 82.9149 62.2323 83.3506 62.5184 83.4071Z" fill="#1F0E03"/>
<path d="M128.442 36.6503C128.446 42.2646 128.687 47.9105 128.304 53.5167C128.284 53.8078 128.737 53.806 128.756 53.5167C129.139 47.9101 128.898 42.2646 128.894 36.6503C128.894 36.3588 128.442 36.3588 128.442 36.6503Z" fill="#1F0E03"/>
<path d="M303.937 109.995C303.937 119.928 295.884 127.981 285.951 127.981H219.922C209.989 127.981 201.936 119.928 201.936 109.995V86.2994C201.936 76.3658 209.989 68.313 219.922 68.313H285.951C295.884 68.313 303.937 76.3658 303.937 86.2994V109.995Z" fill="#FFBC45"/>
<path d="M222.298 138.322C219.208 141.249 216.685 141.249 216.691 138.322C216.698 135.396 216.708 130.605 216.714 127.679C216.72 124.751 219.248 122.356 222.332 122.356C225.415 122.356 230.461 122.356 233.545 122.356C236.629 122.356 236.624 124.751 233.534 127.679C230.444 130.606 225.388 135.396 222.298 138.322Z" fill="#FFBC45"/>
<path d="M216.226 85.1732V83.3967H228.628V85.1732H223.428V99.9338H221.426V85.1732H216.226ZM231.719 99.9338V83.3967H233.722V90.7609H242.539V83.3967H244.542V99.9338H242.539V92.5374H233.722V99.9338H231.719ZM217.808 127.934H215.709L221.781 111.397H223.848L229.92 127.934H227.821L222.879 114.013H222.75L217.808 127.934ZM218.583 121.474H227.046V123.25H218.583V121.474ZM245.61 111.397V127.934H243.672L234.66 114.95H234.499V127.934H232.496V111.397H234.434L243.478 124.413H243.639V111.397H245.61ZM217.13 155.934V139.397H219.132V147.601H219.326L226.755 139.397H229.371L222.427 146.858L229.371 155.934H226.949L221.2 148.247L219.132 150.572V155.934H217.13ZM241.007 143.531C240.91 142.713 240.517 142.078 239.828 141.625C239.139 141.173 238.294 140.947 237.293 140.947C236.56 140.947 235.92 141.066 235.371 141.302C234.827 141.539 234.402 141.865 234.095 142.279C233.794 142.694 233.643 143.165 233.643 143.693C233.643 144.134 233.748 144.513 233.958 144.831C234.173 145.143 234.448 145.404 234.781 145.614C235.115 145.819 235.465 145.988 235.831 146.123C236.197 146.252 236.534 146.357 236.84 146.438L238.52 146.89C238.951 147.003 239.43 147.159 239.957 147.358C240.49 147.558 240.999 147.829 241.483 148.174C241.973 148.513 242.377 148.949 242.695 149.482C243.012 150.015 243.171 150.669 243.171 151.444C243.171 152.338 242.937 153.145 242.468 153.867C242.006 154.588 241.327 155.161 240.434 155.587C239.545 156.012 238.466 156.225 237.196 156.225C236.011 156.225 234.986 156.033 234.119 155.651C233.258 155.269 232.58 154.736 232.084 154.052C231.594 153.369 231.317 152.575 231.253 151.67H233.32C233.374 152.295 233.584 152.812 233.95 153.221C234.321 153.624 234.789 153.926 235.355 154.125C235.925 154.319 236.539 154.416 237.196 154.416C237.96 154.416 238.646 154.292 239.255 154.044C239.863 153.791 240.345 153.441 240.7 152.995C241.055 152.542 241.233 152.015 241.233 151.412C241.233 150.863 241.08 150.416 240.773 150.072C240.466 149.727 240.062 149.447 239.562 149.232C239.061 149.016 238.52 148.828 237.939 148.667L235.904 148.085C234.612 147.714 233.589 147.183 232.835 146.494C232.082 145.805 231.705 144.904 231.705 143.789C231.705 142.864 231.955 142.056 232.456 141.367C232.962 140.673 233.64 140.134 234.491 139.752C235.347 139.364 236.302 139.171 237.357 139.171C238.423 139.171 239.37 139.362 240.199 139.744C241.028 140.121 241.685 140.638 242.17 141.294C242.66 141.951 242.918 142.697 242.945 143.531H241.007ZM248.724 139.397L248.563 151.283H246.69L246.528 139.397H248.724ZM247.626 156.063C247.228 156.063 246.886 155.92 246.601 155.635C246.315 155.35 246.173 155.008 246.173 154.61C246.173 154.211 246.315 153.869 246.601 153.584C246.886 153.299 247.228 153.156 247.626 153.156C248.025 153.156 248.366 153.299 248.652 153.584C248.937 153.869 249.08 154.211 249.08 154.61C249.08 154.873 249.012 155.116 248.878 155.336C248.749 155.557 248.574 155.735 248.353 155.869C248.138 155.998 247.895 156.063 247.626 156.063Z" fill="#C97440"/>
<path d="M259.959 92.9878H213.908V95.9818H259.959V92.9878Z" fill="#FFF2DB"/>
<path d="M253.675 100.262H213.908V103.258H253.675V100.262Z" fill="#FFF2DB"/>
<path d="M240.285 107.537H213.908V110.531H240.285V107.537Z" fill="#FFF2DB"/>
<path d="M270.527 116.554C271.899 113.146 276.647 110.711 279.073 110.743H287.265C289.958 110.997 294.439 113.146 295.811 116.554C292.602 119.729 288.127 121.703 283.169 121.703C278.212 121.703 273.735 119.73 270.527 116.554Z" fill="#31241C"/>
<path d="M286.515 103.749C286.515 103.749 287.299 110.194 287.842 113.838C288.237 116.5 278.683 117.248 278.394 114.378C278.139 110.975 277.849 105.207 277.849 105.207" fill="#C97440"/>
<path d="M286.903 106.711L286.515 103.749L277.848 105.207C277.848 105.207 277.938 106.98 278.06 109.203C278.668 109.395 279.303 109.529 279.967 109.579C282.707 109.783 285.231 108.637 286.903 106.711Z" fill="#AB5D2D"/>
<path d="M272.28 98.6524C271.936 103.259 275.391 107.271 279.996 107.617C284.602 107.96 288.616 104.506 288.96 99.899L289.62 91.0782C289.965 86.4719 286.508 82.4586 281.904 82.1155C277.297 81.7707 273.283 85.2253 272.94 89.8312L272.28 98.6524Z" fill="#C97440"/>
<path d="M283.731 91.1832C283.277 90.3095 282.269 89.7042 281.273 89.8195C280.705 89.8855 280.699 90.7832 281.273 90.7163C281.979 90.634 282.632 91.011 282.957 91.6356C283.223 92.1491 283.997 91.6953 283.731 91.1832Z" fill="#31241C"/>
<path d="M274.646 90.9362C275.038 90.5254 275.757 90.2424 276.319 90.3785C276.88 90.5145 277.119 89.6494 276.557 89.5138C275.688 89.3036 274.627 89.6571 274.011 90.3021C273.613 90.7202 274.246 91.3557 274.646 90.9362Z" fill="#31241C"/>
<path d="M278.39 97.9004C278.296 97.9004 278.204 97.8624 278.136 97.7874L276.689 96.1678C276.616 96.0856 276.587 95.9735 276.611 95.8664C276.635 95.7597 276.71 95.6706 276.812 95.6291L278.552 94.9072C278.725 94.8358 278.923 94.9172 278.994 95.0907C279.066 95.2634 278.984 95.4618 278.811 95.5337L277.513 96.0725L278.642 97.3358C278.767 97.4755 278.755 97.6897 278.615 97.8149C278.551 97.8719 278.47 97.9004 278.39 97.9004Z" fill="#31241C"/>
<path d="M278.258 102.544C277.329 102.544 276.7 101.56 276.336 99.5352C276.316 99.4281 276.35 99.3178 276.426 99.2396C276.502 99.161 276.612 99.1257 276.719 99.1397C277.29 99.2238 278.015 99.3106 279.064 99.3106C279.603 99.3106 280.19 99.2884 280.857 99.2432C280.98 99.2328 281.102 99.2961 281.168 99.4037C281.234 99.5104 281.235 99.6455 281.172 99.7535C280.064 101.631 279.111 102.544 278.258 102.544ZM277.095 99.8742C277.378 101.147 277.794 101.865 278.258 101.865C278.556 101.865 279.193 101.603 280.25 99.9569C279.028 100.018 278.097 99.9954 277.095 99.8742Z" fill="#31241C"/>
<path d="M280.532 95.0567C280.667 95.6022 281.218 95.9349 281.763 95.8002C282.307 95.6655 282.641 95.1141 282.506 94.569C282.372 94.0243 281.821 93.6912 281.276 93.825C280.73 93.9601 280.398 94.512 280.532 95.0567Z" fill="#1A191F"/>
<path d="M274.453 94.695C274.587 95.2383 275.139 95.5728 275.684 95.4386C276.228 95.3043 276.563 94.752 276.428 94.2073C276.293 93.6627 275.742 93.3309 275.198 93.4647C274.653 93.5994 274.318 94.1495 274.453 94.695Z" fill="#1A191F"/>
<path d="M287.358 97.6844C286.962 99.3138 287.962 100.956 289.591 101.352C291.221 101.748 292.864 100.749 293.259 99.1181L293.486 98.1866C293.883 96.5571 292.883 94.9145 291.252 94.5181C289.622 94.1222 287.979 95.1234 287.584 96.7528L287.358 97.6844Z" fill="#C97440"/>
<path d="M291.94 94.8223C292.653 92.7878 296.132 84.5158 290.958 84.2667C290.636 81.0186 286.122 79.306 280.484 78.2C274.846 77.0944 271.33 79.735 271.758 82.3756C272.186 85.0166 275.648 85.9789 278.395 85.1942C279.181 88.0491 282.963 87.0854 283.785 86.515C284.418 89.2803 287.558 89.9497 287.202 91.8766C286.845 93.8039 286.684 95.766 286.612 96.1597C286.542 96.553 288.183 97.3187 288.541 96.5335C288.896 95.7493 290.307 94.34 291.94 94.8223Z" fill="#31241C"/>
<path d="M285.739 126.648C292.378 126.385 299.493 122.16 300.907 115.299C300.966 115.015 300.53 114.893 300.471 115.179C299.098 121.842 292.187 125.94 285.739 126.196C285.448 126.207 285.447 126.659 285.739 126.648Z" fill="#1F0E03"/>
<path d="M280.246 126.684C281.458 126.727 282.669 126.751 283.881 126.778C284.173 126.785 284.172 126.333 283.881 126.326C282.669 126.299 281.458 126.275 280.246 126.232C279.954 126.221 279.956 126.673 280.246 126.684Z" fill="#1F0E03"/>
<path d="M222.196 136.668C224.472 134.62 226.757 132.582 228.896 130.39C229.886 129.376 230.769 128.052 231.965 127.249C232.672 126.773 233.55 126.697 234.377 126.65C236.006 126.556 237.645 126.598 239.275 126.576C242.232 126.535 245.185 126.377 248.143 126.383C251.311 126.389 254.478 126.532 257.642 126.676C263.806 126.957 269.986 127.249 276.138 126.615C276.425 126.585 276.428 126.133 276.138 126.163C269.843 126.811 263.521 126.492 257.216 126.205C253.901 126.054 250.585 125.925 247.266 125.931C244.305 125.936 241.346 126.102 238.385 126.134C236.366 126.156 233.555 125.709 231.736 126.858C230.61 127.571 229.764 128.822 228.869 129.767C226.666 132.09 224.255 134.209 221.876 136.349C221.659 136.543 221.98 136.862 222.196 136.668Z" fill="#1F0E03"/>
<path d="M266.683 45.2232C266.683 50.4225 262.467 54.6379 257.268 54.6379H169.608C164.409 54.6379 160.193 50.4225 160.193 45.2232V36.4594C160.193 31.26 164.409 27.0442 169.608 27.0442H257.268C262.467 27.0442 266.683 31.26 266.683 36.4594V45.2232Z" fill="#F5CDB3"/>
<path d="M174.84 33.6335C175.17 32.965 175.711 32.965 176.04 33.6335L177.094 35.7692C177.424 36.4377 178.298 37.0732 179.036 37.1803L181.393 37.5229C182.131 37.63 182.298 38.144 181.764 38.6642L180.059 40.3258C179.525 40.846 179.191 41.8734 179.317 42.6088L179.72 44.9556C179.846 45.6906 179.409 46.0083 178.749 45.6616L176.641 44.5529C175.981 44.2057 174.9 44.2057 174.24 44.5533L172.133 45.6612C171.473 46.0083 171.036 45.6906 171.162 44.9556L171.565 42.6088C171.691 41.8734 171.357 40.8465 170.823 40.3258L169.118 38.6642C168.584 38.144 168.751 37.63 169.489 37.5229L171.845 37.1794C172.583 37.0723 173.457 36.4368 173.787 35.7683L174.84 33.6335Z" fill="#C97440"/>
<path d="M193.674 33.6335C194.004 32.965 194.544 32.965 194.874 33.6335L195.927 35.7692C196.257 36.4377 197.13 37.0732 197.869 37.1803L200.225 37.5229C200.963 37.63 201.13 38.144 200.596 38.6642L198.891 40.3258C198.357 40.846 198.024 41.8734 198.15 42.6088L198.552 44.9556C198.678 45.6906 198.241 46.0083 197.582 45.6612L195.474 44.5533C194.814 44.2057 193.734 44.2057 193.074 44.5529L190.965 45.6616C190.305 46.0088 189.868 45.6906 189.994 44.9556L190.397 42.6088C190.523 41.8734 190.189 40.8465 189.655 40.3258L187.951 38.6642C187.416 38.144 187.583 37.63 188.321 37.5229L190.678 37.1794C191.416 37.0723 192.29 36.4368 192.62 35.7683L193.674 33.6335Z" fill="#C97440"/>
<path d="M212.507 33.6335C212.837 32.965 213.378 32.965 213.707 33.6335L214.761 35.7692C215.09 36.4377 215.964 37.0732 216.702 37.1803L219.059 37.5229C219.797 37.63 219.964 38.144 219.43 38.6642L217.725 40.3258C217.191 40.846 216.857 41.8734 216.983 42.6088L217.386 44.9556C217.512 45.6906 217.075 46.0083 216.415 45.6612L214.307 44.5533C213.647 44.2057 212.567 44.2057 211.907 44.5533L209.799 45.6612C209.14 46.0083 208.702 45.6906 208.829 44.9556L209.231 42.6088C209.357 41.8734 209.023 40.8465 208.489 40.3258L206.785 38.6642C206.25 38.144 206.417 37.63 207.155 37.5225L209.51 37.1799C210.248 37.0723 211.122 36.4368 211.452 35.7683L212.507 33.6335Z" fill="#C97440"/>
<path d="M231.341 33.6335C231.671 32.965 232.212 32.965 232.541 33.6335L233.595 35.7692C233.924 36.4377 234.798 37.0732 235.536 37.1803L237.893 37.5229C238.631 37.63 238.798 38.144 238.264 38.6642L236.559 40.3258C236.025 40.846 235.691 41.8734 235.818 42.6088L236.22 44.9556C236.346 45.6906 235.909 46.0083 235.249 45.6612L233.142 44.5533C232.482 44.2057 231.401 44.2057 230.741 44.5533L228.633 45.6612C227.973 46.0083 227.536 45.6906 227.662 44.9556L228.065 42.6088C228.19 41.8739 227.857 40.8465 227.323 40.3258L225.618 38.6642C225.084 38.144 225.251 37.63 225.989 37.5229L228.345 37.1794C229.083 37.0723 229.957 36.4368 230.287 35.7683L231.341 33.6335Z" fill="#C97440"/>
<path d="M250.173 33.6335C250.504 32.965 251.044 32.965 251.374 33.6335L252.428 35.7692C252.758 36.4377 253.632 37.0732 254.37 37.1803L256.727 37.5229C257.465 37.63 257.632 38.144 257.098 38.6642L255.392 40.3258C254.858 40.846 254.524 41.8734 254.651 42.6088L255.053 44.9556C255.179 45.6906 254.742 46.0083 254.082 45.6616L251.974 44.5529C251.314 44.2057 250.234 44.2057 249.573 44.5533L247.466 45.6612C246.807 46.0083 246.369 45.6906 246.496 44.9556L246.899 42.6088C247.024 41.8734 246.691 40.8465 246.157 40.3258L244.452 38.6642C243.918 38.144 244.085 37.63 244.823 37.5225L247.178 37.1799C247.916 37.0723 248.79 36.4368 249.12 35.7683L250.173 33.6335Z" fill="#C97440"/>
<path d="M207.304 53.2547C208.791 53.2375 210.276 53.1069 211.763 53.0897C212.055 53.0865 212.055 52.6345 211.763 52.6377C210.276 52.6549 208.791 52.7855 207.304 52.8027C207.013 52.8059 207.012 53.2579 207.304 53.2547Z" fill="#1F0E03"/>
<path d="M213.834 53.0899C219.149 52.9701 224.463 53.2074 229.777 53.1206C232.429 53.0772 235.059 52.8295 237.705 52.6993C240.486 52.5628 243.273 52.6098 246.055 52.6817C248.713 52.75 251.369 52.8535 254.027 52.8928C255.86 52.9199 257.724 53.0081 259.528 52.6184C262.48 51.9802 263.736 49.59 263.931 46.7501C263.952 46.459 263.499 46.4608 263.479 46.7501C263.371 48.3262 263.005 49.8757 261.832 51.0039C260.764 52.0308 259.157 52.3074 257.741 52.4186C255.634 52.5845 253.475 52.4403 251.365 52.3861C248.86 52.3215 246.355 52.2256 243.85 52.1818C238.847 52.0946 233.888 52.6175 228.892 52.6817C223.872 52.7463 218.853 52.5249 213.834 52.6379C213.543 52.6446 213.542 53.0966 213.834 53.0899Z" fill="#1F0E03"/>
<path d="M56.1263 112.885C56.1263 118.084 51.9109 122.299 46.7116 122.299H9.51603C4.31667 122.299 0.101318 118.084 0.101318 112.885V101.932C0.101318 96.7325 4.31622 92.5176 9.51603 92.5176H46.712C51.9114 92.5176 56.1267 96.7325 56.1267 101.932L56.1263 112.885Z" fill="#F5CDB3"/>
<path d="M12.9142 115H4.94406V113.889L8.92915 109.461C9.28561 109.066 9.58359 108.715 9.82308 108.408C10.0626 108.102 10.2547 107.818 10.3995 107.556C10.5444 107.3 10.6474 107.058 10.7087 106.829C10.7699 106.595 10.8006 106.356 10.8006 106.111C10.8006 105.81 10.7504 105.529 10.6502 105.267C10.5555 105 10.4163 104.769 10.2325 104.574C10.0431 104.379 9.81473 104.225 9.54738 104.114C9.28561 103.997 8.98763 103.939 8.65345 103.939C8.24687 103.939 7.89319 103.997 7.59243 104.114C7.29724 104.231 7.05217 104.395 6.85724 104.607C6.65673 104.824 6.50635 105.086 6.40609 105.392C6.31141 105.699 6.26407 106.041 6.26407 106.42H4.71013C4.71013 105.908 4.79925 105.426 4.97748 104.975C5.1557 104.518 5.41469 104.12 5.75444 103.78C6.08862 103.44 6.49799 103.17 6.98255 102.97C7.47268 102.769 8.02965 102.669 8.65345 102.669C9.22713 102.669 9.74232 102.755 10.199 102.928C10.6613 103.095 11.0512 103.329 11.3687 103.63C11.6861 103.93 11.9284 104.287 12.0955 104.699C12.2682 105.111 12.3545 105.559 12.3545 106.044C12.3545 106.406 12.2932 106.765 12.1707 107.122C12.0482 107.473 11.8839 107.821 11.6778 108.166C11.4661 108.511 11.2211 108.854 10.9426 109.194C10.6697 109.528 10.38 109.862 10.0737 110.196L6.80711 113.738H12.9142V115ZM21.9956 110.915H23.6915V112.176H21.9956V115H20.45V112.176H14.9026V111.266L20.3497 102.836H21.9956V110.915ZM16.6153 110.915H20.45V104.891L20.1994 105.359L16.6153 110.915ZM28.0442 116.044H26.6574L31.7369 102.836H33.1154L28.0442 116.044ZM43.9846 103.705L38.9468 115H37.3261L42.3471 104.189H35.7638V102.836H43.9846V103.705Z" fill="#C97440"/>
<path d="M32.3854 120.679C38.8305 119.101 46.0155 122.271 51.8883 118.302C52.1283 118.141 51.9023 117.748 51.66 117.912C45.8586 121.833 38.6524 118.679 32.2652 120.242C31.9822 120.312 32.1024 120.748 32.3854 120.679Z" fill="#1F0E03"/>
<path d="M54.0258 103.985C54.1257 104.957 54.0769 105.929 54.2089 106.899C54.3621 108.023 54.528 109.108 54.5167 110.244C54.4959 112.395 54.3142 114.683 53.0658 116.507C52.9003 116.748 53.2927 116.974 53.4558 116.734C54.5533 115.132 54.8299 113.204 54.937 111.305C54.9926 110.323 55.0148 109.321 54.8801 108.345C54.6785 106.886 54.6274 105.443 54.4778 103.985C54.4489 103.698 53.996 103.695 54.0258 103.985Z" fill="#1F0E03"/>
</svg>
