<svg width="48" height="48" viewBox="0 0 48 48" fill="none" xmlns="http://www.w3.org/2000/svg">
<path d="M48 4.94395V48C41.0898 42.6568 43.2999 44.4255 35.273 37.896L35.7961 42.3359H5.62274C2.52337 42.3359 0 40.1282 0 37.3919V4.94395C0 2.20795 2.52324 0 5.62274 0H42.3769C45.4765 0 48 2.20795 48 4.94395Z" fill="black"/>
<path d="M36.233 13.7039C32.2833 11.112 28.5256 11.1839 28.5256 11.1839L28.1416 11.568C32.8044 12.8159 34.9714 14.616 34.9714 14.616C28.4558 11.4914 20.8022 11.4909 14.4821 13.92C13.4672 14.328 12.8638 14.616 12.8638 14.616C12.8638 14.616 15.1405 12.72 20.0777 11.472L19.8035 11.1839C19.8035 11.1839 16.0456 11.112 12.0959 13.7039C12.0959 13.7039 8.14624 19.968 8.14624 27.6959C8.14624 27.6959 10.4504 31.1758 16.5118 31.3439C16.5118 31.3439 17.5268 30.2641 18.3497 29.3519C14.8661 28.4398 13.5498 26.5201 13.5498 26.5201C13.9532 26.7669 14.6186 27.0876 14.6743 27.12C19.3039 29.3888 25.88 30.1319 31.7897 27.96C32.7495 27.648 33.8194 27.1919 34.9439 26.5439C34.9439 26.5439 33.5724 28.5121 29.9793 29.4C30.8024 30.3119 31.7897 31.3438 31.7897 31.3438C37.8514 31.1758 40.1827 27.6958 40.1827 27.6958C40.1827 19.968 36.233 13.7039 36.233 13.7039ZM19.0353 25.464C17.4993 25.464 16.2375 24.2641 16.2375 22.7999C16.2375 21.3359 17.4718 20.136 19.0353 20.136C20.5987 20.136 21.8605 21.3359 21.833 22.7999C21.833 24.2641 20.5987 25.464 19.0353 25.464ZM29.0467 25.464C27.5109 25.464 26.249 24.2641 26.249 22.7999C26.249 21.3359 27.4834 20.136 29.0467 20.136C30.6102 20.136 31.8446 21.3359 31.8446 22.7999C31.8446 24.2641 30.6102 25.464 29.0467 25.464Z" fill="#FFC700"/>
</svg>
