<svg width="48" height="48" viewBox="0 0 48 48" fill="none" xmlns="http://www.w3.org/2000/svg">
<path fill-rule="evenodd" clip-rule="evenodd" d="M29.674 47.996C46.358 47.5133 48 43.9967 48 24.0321C48 2.00267 46 0 24 0C2 0 0 2.00267 0 24.0321C0 44.0487 1.652 47.5314 18.456 48C18.602 47.8178 18.656 47.5894 18.656 47.3571C18.656 46.8565 18.636 41.7176 18.626 39.9493C12.552 41.229 11.27 37.1075 11.27 37.1075C10.276 34.6602 8.84401 34.0074 8.84401 34.0074C6.862 32.6936 8.99401 32.7196 8.99401 32.7196C11.186 32.8698 12.34 34.9046 12.34 34.9046C14.288 38.1429 17.452 37.2076 18.696 36.6649C18.894 35.2971 19.458 34.3618 20.082 33.8331C15.232 33.2984 10.134 31.48 10.134 23.3592C10.134 21.0461 10.986 19.1556 12.382 17.6735C12.156 17.1368 11.408 14.982 12.596 12.0661C12.596 12.0661 14.43 11.4953 18.602 14.237C20.344 13.7663 22.212 13.532 24.07 13.524C25.924 13.532 27.792 13.7663 29.538 14.237C33.708 11.4953 35.538 12.0661 35.538 12.0661C36.73 14.982 35.98 17.1368 35.754 17.6735C37.154 19.1556 38 21.0461 38 23.3592C38 31.5 32.894 33.2924 28.028 33.8151C28.812 34.47 29.51 35.7637 29.51 37.7403C29.51 39.6349 29.498 42.9853 29.49 45.2063C29.486 46.3057 29.484 47.1268 29.484 47.3571C29.484 47.5754 29.542 47.8057 29.674 47.996Z" fill="black"/>
</svg>
