<svg width="48" height="48" viewBox="0 0 48 48" fill="none" xmlns="http://www.w3.org/2000/svg">
<path d="M24 0C24 0 9.1536 14.24 0.8568 21.952C0.3696 22.4427 0 23.1573 0 24C0 25.4747 1.0728 26.6667 2.4 26.6667H7.2V45.3333C7.2 46.808 8.2728 48 9.6 48H16.8C18.1272 48 19.2 46.8053 19.2 45.3333V34.6667H28.8V45.3333C28.8 46.8053 29.8728 48 31.2 48H38.4C39.7272 48 40.8 46.808 40.8 45.3333V26.6667H45.6C46.9272 26.6667 48 25.4747 48 24C48 23.1573 47.6304 22.4427 47.0808 21.952C38.8416 14.24 24 0 24 0Z" fill="black"/>
</svg>
