<svg width="48" height="48" viewBox="0 0 48 48" fill="none" xmlns="http://www.w3.org/2000/svg">
<path d="M39.6 0H8.4C3.76081 0 0 3.76081 0 8.4V39.6C0 44.2392 3.76081 48 8.4 48H39.6C44.2392 48 48 44.2392 48 39.6V8.4C48 3.76081 44.2392 0 39.6 0Z" fill="black"/>
<path d="M13.515 17.655H6.74249V42.195H13.515V17.655Z" fill="#FFC700"/>
<path d="M36.15 17.655C31.155 15.75 27.54 18.975 25.995 20.775V17.655H19.245V42.195H25.995V29.25C25.9566 27.6093 26.5561 26.0176 27.6675 24.81C27.9847 24.4366 28.3756 24.1326 28.8157 23.9171C29.2557 23.7016 29.7355 23.5792 30.225 23.5575C30.7725 23.547 31.3164 23.6472 31.8242 23.8521C32.332 24.0571 32.7932 24.3625 33.18 24.75C34.0189 25.6267 34.4772 26.7994 34.455 28.0125V42.195H42.075V27C42.075 27 42.9225 20.19 36.15 17.655Z" fill="#FFC700"/>
<path d="M10.125 14.265C12.4612 14.265 14.355 12.3712 14.355 10.035C14.355 7.69886 12.4612 5.80502 10.125 5.80502C7.78886 5.80502 5.89502 7.69886 5.89502 10.035C5.89502 12.3712 7.78886 14.265 10.125 14.265Z" fill="#FFC700"/>
</svg>
