<svg width="201" height="150" viewBox="0 0 201 150" fill="none" xmlns="http://www.w3.org/2000/svg">
<path d="M139.431 80.9782H137.277V40.4158V36.43H139.431C140.108 36.43 140.692 35.8829 140.908 35.0232C141.092 34.2025 140.846 33.3038 140.292 32.8348L101.836 0.322389C101.313 -0.107463 100.637 -0.107463 100.144 0.322389L61.6884 32.8348C61.1346 33.3038 60.8577 34.2025 61.0731 35.0232C61.2577 35.8438 61.873 36.43 62.5498 36.43H64.7033V40.4158V80.9782H62.5498C61.6884 80.9782 61.0116 81.7598 61.0116 82.854V95.007C61.0116 96.1012 61.6884 97 62.5498 97H139.462C140.323 97 141 96.0621 141 95.007V82.854C140.969 81.7598 140.292 80.9782 139.431 80.9782ZM67.7491 42.2916H70.8255V79.8059H67.7491V42.2916ZM73.902 42.2916H76.9785V79.8059H73.902V42.2916ZM80.055 42.2916H93.2838V80.9782H80.055V42.2916ZM105.59 79.8059H102.513V42.2916H105.59V79.8059ZM99.4368 79.8059H96.3603V42.2916H99.4368V79.8059ZM108.666 42.2916H121.895V80.9782H108.666V42.2916ZM134.201 42.2916V79.8059H131.125V42.2916H134.201ZM128.048 79.8059H124.972V42.2916H128.048V79.8059ZM100.975 4.23013L133.001 31.3499H68.9489L100.975 4.23013ZM134.201 36.43V38.3838H123.31H107.097H94.8221H78.6398H67.7491V36.43H134.201ZM137.893 93.0923H64.0573V84.886H71.9638C72.0869 84.886 72.2407 84.9641 72.3638 84.9641C72.4868 84.9641 72.6407 84.886 72.7637 84.886H100.544C100.667 84.886 100.821 84.9641 100.944 84.9641C101.067 84.9641 101.221 84.886 101.344 84.886H137.893V93.0923Z" fill="black"/>
<path d="M13.2309 114.651C13.2309 115.334 13.1687 115.994 13.0445 116.631C12.928 117.267 12.7572 117.869 12.532 118.436C12.2913 119.003 11.9924 119.527 11.6352 120.008C11.2781 120.482 10.8665 120.89 10.4007 121.231C9.95032 121.542 9.4495 121.786 8.89822 121.965C8.3547 122.144 7.75682 122.233 7.1046 122.233C6.42908 122.233 5.80791 122.14 5.2411 121.953C4.68205 121.759 4.18123 121.495 3.73865 121.161C3.2883 120.82 2.89231 120.408 2.55067 119.927C2.21679 119.445 1.93726 118.917 1.71209 118.343C1.49468 117.792 1.33163 117.205 1.22292 116.584C1.11422 115.955 1.05987 115.311 1.05987 114.651V112.415C1.05987 111.724 1.1181 111.056 1.23457 110.411C1.35104 109.767 1.52574 109.157 1.75868 108.583C1.98385 108.032 2.2595 107.527 2.58561 107.069C2.91949 106.603 3.3116 106.199 3.76194 105.857C4.19676 105.524 4.68981 105.267 5.2411 105.089C5.80015 104.902 6.41355 104.809 7.0813 104.809C7.75682 104.809 8.37799 104.902 8.94481 105.089C9.51162 105.275 10.0202 105.535 10.4705 105.869C10.9209 106.203 11.313 106.595 11.6469 107.045C11.9808 107.496 12.2603 107.989 12.4855 108.525C12.7339 109.099 12.9203 109.716 13.0445 110.376C13.1687 111.029 13.2309 111.708 13.2309 112.415V114.651ZM10.4123 112.391C10.4045 111.964 10.3774 111.545 10.3308 111.133C10.292 110.722 10.2221 110.33 10.1211 109.957C10.0047 109.53 9.84938 109.142 9.65526 108.792C9.46891 108.435 9.23986 108.132 8.9681 107.884C8.7274 107.667 8.45175 107.496 8.14117 107.372C7.83059 107.247 7.4773 107.185 7.0813 107.185C6.70084 107.185 6.3592 107.247 6.05638 107.372C5.75356 107.488 5.48956 107.651 5.26439 107.861C4.99263 108.117 4.76357 108.424 4.57722 108.781C4.39087 109.13 4.24723 109.522 4.14629 109.957C4.05311 110.33 3.98323 110.726 3.93665 111.145C3.89782 111.557 3.87841 111.972 3.87841 112.391V114.651C3.87841 115.062 3.89782 115.47 3.93665 115.874C3.97547 116.277 4.04147 116.666 4.13464 117.038C4.23558 117.458 4.37146 117.85 4.54228 118.215C4.72087 118.572 4.9344 118.875 5.18286 119.123C5.42356 119.356 5.69921 119.543 6.00979 119.682C6.32814 119.814 6.69307 119.88 7.1046 119.88C7.50059 119.88 7.85776 119.814 8.17611 119.682C8.50222 119.55 8.78175 119.372 9.01469 119.147C9.28645 118.89 9.51162 118.587 9.69021 118.238C9.87656 117.881 10.0241 117.489 10.1328 117.062C10.226 116.689 10.292 116.301 10.3308 115.897C10.3774 115.486 10.4045 115.07 10.4123 114.651V112.391ZM16.1542 126.845V109.398H18.7165L18.8214 110.691C18.9922 110.481 19.1785 110.291 19.3804 110.12C19.5823 109.949 19.7997 109.802 20.0326 109.678C20.3355 109.515 20.6693 109.39 21.0343 109.305C21.3992 109.212 21.7874 109.165 22.199 109.165C23.0065 109.165 23.7169 109.32 24.3303 109.631C24.9515 109.942 25.4717 110.38 25.891 110.947C26.3025 111.514 26.617 112.193 26.8344 112.985C27.0518 113.77 27.1605 114.635 27.1605 115.583V115.827C27.1605 116.736 27.0518 117.582 26.8344 118.366C26.6248 119.15 26.3103 119.826 25.891 120.393C25.4717 120.967 24.9554 121.418 24.342 121.744C23.7286 122.07 23.0259 122.233 22.2339 122.233C21.7836 122.233 21.3681 122.186 20.9877 122.093C20.615 122 20.2695 121.864 19.9511 121.686C19.7648 121.577 19.5862 121.453 19.4154 121.313C19.2445 121.173 19.0854 121.022 18.9378 120.859V126.845H16.1542ZM24.3769 115.583C24.3769 115.016 24.3187 114.484 24.2022 113.987C24.0935 113.482 23.9227 113.044 23.6898 112.671C23.4491 112.298 23.1424 112.003 22.7697 111.786C22.397 111.568 21.9505 111.46 21.4303 111.46C21.143 111.46 20.8751 111.491 20.6266 111.553C20.3782 111.615 20.1569 111.704 19.9628 111.821C19.7376 111.945 19.5396 112.1 19.3688 112.287C19.2057 112.473 19.0621 112.682 18.9378 112.915V118.518C19.0465 118.735 19.1785 118.933 19.3338 119.112C19.4891 119.29 19.6677 119.445 19.8696 119.577C20.0792 119.702 20.316 119.803 20.58 119.88C20.844 119.95 21.1352 119.985 21.4536 119.985C21.9738 119.985 22.4164 119.876 22.7813 119.659C23.154 119.434 23.4568 119.131 23.6898 118.751C23.9305 118.362 24.1052 117.92 24.2139 117.423C24.3226 116.918 24.3769 116.386 24.3769 115.827V115.583ZM38.7142 122L38.5512 120.241C38.1241 120.87 37.6039 121.363 36.9905 121.72C36.3771 122.07 35.6899 122.245 34.929 122.245C34.2768 122.245 33.6789 122.144 33.1354 121.942C32.5996 121.732 32.1376 121.41 31.7494 120.975C31.3689 120.54 31.0739 119.985 30.8642 119.31C30.6546 118.626 30.5498 117.811 30.5498 116.864V109.398H33.3334V116.887C33.3334 117.469 33.3761 117.959 33.4615 118.355C33.5469 118.743 33.6828 119.053 33.8691 119.286C34.0555 119.527 34.2923 119.698 34.5796 119.799C34.8669 119.9 35.2046 119.95 35.5929 119.95C35.9966 119.95 36.3577 119.907 36.676 119.822C36.9944 119.729 37.2739 119.605 37.5146 119.449C37.7165 119.31 37.8951 119.147 38.0504 118.96C38.2057 118.766 38.3377 118.553 38.4464 118.32V109.398H41.2416V122H38.7142ZM45.318 104.11H52.1081V119.694H55.9283V122H45.318V119.694H49.3013V106.428H45.318V104.11ZM64.9896 122.233C64.0578 122.233 63.2037 122.078 62.4273 121.767C61.6586 121.456 60.9986 121.026 60.4473 120.474C59.896 119.931 59.469 119.29 59.1662 118.553C58.8711 117.807 58.7236 117.003 58.7236 116.142V115.664C58.7236 114.678 58.8789 113.785 59.1895 112.985C59.5 112.186 59.9271 111.502 60.4706 110.935C61.0141 110.369 61.6431 109.934 62.3574 109.631C63.0795 109.32 63.8482 109.165 64.6635 109.165C65.5719 109.165 66.3756 109.32 67.0744 109.631C67.7732 109.934 68.3594 110.357 68.8331 110.901C69.3067 111.452 69.6639 112.108 69.9046 112.869C70.1453 113.63 70.2656 114.461 70.2656 115.361V116.561H61.5305V116.619C61.6159 117.17 61.7479 117.632 61.9265 118.005C62.1051 118.378 62.3496 118.712 62.6602 119.007C62.9708 119.317 63.3357 119.558 63.755 119.729C64.1821 119.9 64.648 119.985 65.1527 119.985C65.8437 119.985 66.4882 119.853 67.086 119.589C67.6839 119.317 68.177 118.933 68.5652 118.436L70.056 119.88C69.6367 120.486 68.9922 121.029 68.1226 121.511C67.2607 121.992 66.2164 122.233 64.9896 122.233ZM64.6518 111.425C64.2558 111.425 63.887 111.498 63.5454 111.646C63.2115 111.786 62.9126 111.988 62.6486 112.252C62.3846 112.523 62.1633 112.849 61.9847 113.23C61.8061 113.61 61.6741 114.041 61.5887 114.523H67.517V114.336C67.517 113.971 67.451 113.61 67.319 113.253C67.187 112.888 67.0006 112.57 66.7599 112.298C66.527 112.034 66.2319 111.825 65.8748 111.669C65.5254 111.506 65.1177 111.425 64.6518 111.425ZM73.4336 122V109.398H75.9493L76.124 111.192C76.2948 110.951 76.4812 110.73 76.6831 110.528C76.8927 110.318 77.114 110.132 77.3469 109.969C77.7196 109.713 78.1273 109.515 78.5699 109.375C79.0124 109.235 79.4783 109.165 79.9675 109.165C80.612 109.165 81.2021 109.258 81.7378 109.445C82.2736 109.631 82.7317 109.926 83.1122 110.33C83.4926 110.734 83.7877 111.25 83.9973 111.879C84.207 112.5 84.3118 113.253 84.3118 114.138V122H81.5282V114.185C81.5282 113.665 81.4699 113.23 81.3535 112.88C81.237 112.531 81.0662 112.252 80.841 112.042C80.6158 111.832 80.3441 111.685 80.0257 111.599C79.7074 111.506 79.3424 111.46 78.9309 111.46C78.5893 111.46 78.2709 111.506 77.9759 111.599C77.6808 111.685 77.4129 111.809 77.1722 111.972C76.9859 112.096 76.8112 112.248 76.6481 112.426C76.4851 112.605 76.3414 112.799 76.2172 113.009V122H73.4336ZM93.2449 119.997C93.5943 119.997 93.9282 119.946 94.2466 119.845C94.5727 119.737 94.86 119.585 95.1084 119.391C95.3491 119.197 95.5394 118.968 95.6791 118.704C95.8267 118.44 95.9004 118.149 95.9004 117.83H98.521C98.5287 118.444 98.389 119.022 98.1017 119.566C97.8222 120.102 97.4417 120.564 96.9603 120.952C96.4711 121.356 95.9082 121.674 95.2715 121.907C94.6426 122.132 93.9787 122.245 93.2799 122.245C92.3093 122.245 91.4591 122.078 90.7292 121.744C90.0071 121.402 89.4053 120.944 88.9239 120.369C88.4348 119.795 88.066 119.127 87.8175 118.366C87.569 117.597 87.4448 116.778 87.4448 115.909V115.501C87.4448 114.639 87.5651 113.824 87.8058 113.055C88.0543 112.287 88.4231 111.615 88.9123 111.04C89.4015 110.466 90.0071 110.011 90.7292 109.678C91.4591 109.336 92.3054 109.165 93.2682 109.165C94.0292 109.165 94.7319 109.282 95.3763 109.515C96.0285 109.747 96.5876 110.074 97.0535 110.493C97.5193 110.912 97.8804 111.413 98.1366 111.995C98.4006 112.578 98.5287 113.218 98.521 113.917H95.9004C95.9004 113.575 95.8344 113.253 95.7024 112.95C95.5782 112.648 95.3996 112.384 95.1667 112.158C94.926 111.933 94.6387 111.755 94.3048 111.623C93.9787 111.491 93.6254 111.425 93.2449 111.425C92.6626 111.425 92.1773 111.545 91.7891 111.786C91.4086 112.019 91.1058 112.325 90.8806 112.706C90.6399 113.086 90.4691 113.521 90.3682 114.01C90.275 114.499 90.2284 114.996 90.2284 115.501V115.909C90.2284 116.421 90.275 116.926 90.3682 117.423C90.4691 117.912 90.636 118.343 90.869 118.716C91.0941 119.104 91.4008 119.414 91.7891 119.647C92.1773 119.88 92.6626 119.997 93.2449 119.997ZM107.967 122.233C107.035 122.233 106.181 122.078 105.404 121.767C104.636 121.456 103.976 121.026 103.424 120.474C102.873 119.931 102.446 119.29 102.143 118.553C101.848 117.807 101.701 117.003 101.701 116.142V115.664C101.701 114.678 101.856 113.785 102.166 112.985C102.477 112.186 102.904 111.502 103.448 110.935C103.991 110.369 104.62 109.934 105.334 109.631C106.057 109.32 106.825 109.165 107.64 109.165C108.549 109.165 109.353 109.32 110.051 109.631C110.75 109.934 111.336 110.357 111.81 110.901C112.284 111.452 112.641 112.108 112.882 112.869C113.122 113.63 113.243 114.461 113.243 115.361V116.561H104.507V116.619C104.593 117.17 104.725 117.632 104.903 118.005C105.082 118.378 105.327 118.712 105.637 119.007C105.948 119.317 106.313 119.558 106.732 119.729C107.159 119.9 107.625 119.985 108.13 119.985C108.821 119.985 109.465 119.853 110.063 119.589C110.661 119.317 111.154 118.933 111.542 118.436L113.033 119.88C112.614 120.486 111.969 121.029 111.1 121.511C110.238 121.992 109.193 122.233 107.967 122.233ZM107.629 111.425C107.233 111.425 106.864 111.498 106.522 111.646C106.188 111.786 105.89 111.988 105.626 112.252C105.362 112.523 105.14 112.849 104.962 113.23C104.783 113.61 104.651 114.041 104.566 114.523H110.494V114.336C110.494 113.971 110.428 113.61 110.296 113.253C110.164 112.888 109.978 112.57 109.737 112.298C109.504 112.034 109.209 111.825 108.852 111.669C108.502 111.506 108.095 111.425 107.629 111.425ZM142.034 119.915C141.801 120.195 141.517 120.466 141.184 120.73C140.85 120.987 140.473 121.216 140.054 121.418C139.526 121.674 138.951 121.872 138.33 122.012C137.709 122.159 137.045 122.233 136.338 122.233C135.686 122.233 135.077 122.148 134.51 121.977C133.943 121.806 133.431 121.565 132.972 121.255C132.514 120.944 132.103 120.567 131.738 120.125C131.381 119.682 131.082 119.189 130.841 118.646C130.569 118.079 130.364 117.454 130.224 116.771C130.084 116.087 130.01 115.369 130.002 114.616V112.45C130.01 111.72 130.076 111.021 130.2 110.353C130.332 109.685 130.523 109.068 130.771 108.501C131.012 107.966 131.299 107.476 131.633 107.034C131.967 106.591 132.347 106.207 132.774 105.881C133.24 105.539 133.753 105.275 134.312 105.089C134.879 104.902 135.492 104.809 136.152 104.809C137.045 104.809 137.837 104.93 138.528 105.17C139.219 105.411 139.809 105.756 140.298 106.207C140.795 106.665 141.187 107.22 141.475 107.872C141.762 108.517 141.944 109.243 142.022 110.05H139.273C139.204 109.608 139.099 109.208 138.959 108.851C138.819 108.486 138.633 108.179 138.4 107.931C138.151 107.667 137.845 107.465 137.48 107.325C137.123 107.185 136.699 107.115 136.21 107.115C135.853 107.115 135.523 107.177 135.22 107.302C134.917 107.418 134.646 107.581 134.405 107.791C134.125 108.032 133.881 108.33 133.671 108.688C133.469 109.037 133.302 109.429 133.17 109.864C133.054 110.244 132.969 110.652 132.914 111.087C132.86 111.522 132.833 111.968 132.833 112.426V114.616C132.833 115.152 132.868 115.66 132.938 116.142C133.015 116.623 133.128 117.069 133.275 117.481C133.392 117.792 133.528 118.083 133.683 118.355C133.846 118.626 134.036 118.867 134.254 119.077C134.525 119.348 134.84 119.558 135.197 119.706C135.562 119.853 135.973 119.931 136.432 119.939C136.703 119.939 136.979 119.923 137.259 119.892C137.538 119.853 137.806 119.795 138.062 119.717C138.311 119.64 138.54 119.543 138.749 119.426C138.959 119.302 139.126 119.158 139.25 118.995L139.262 115.606H136.187V113.428H142.01L142.034 119.915ZM153.32 122L153.157 120.241C152.729 120.87 152.209 121.363 151.596 121.72C150.982 122.07 150.295 122.245 149.534 122.245C148.882 122.245 148.284 122.144 147.741 121.942C147.205 121.732 146.743 121.41 146.355 120.975C145.974 120.54 145.679 119.985 145.47 119.31C145.26 118.626 145.155 117.811 145.155 116.864V109.398H147.939V116.887C147.939 117.469 147.981 117.959 148.067 118.355C148.152 118.743 148.288 119.053 148.474 119.286C148.661 119.527 148.898 119.698 149.185 119.799C149.472 119.9 149.81 119.95 150.198 119.95C150.602 119.95 150.963 119.907 151.281 119.822C151.6 119.729 151.879 119.605 152.12 119.449C152.322 119.31 152.5 119.147 152.656 118.96C152.811 118.766 152.943 118.553 153.052 118.32V109.398H155.847V122H153.32ZM167.436 122C167.35 121.845 167.28 121.658 167.226 121.441C167.179 121.216 167.137 120.983 167.098 120.742C166.904 120.944 166.682 121.138 166.434 121.324C166.193 121.503 165.921 121.658 165.619 121.79C165.316 121.93 164.99 122.039 164.64 122.116C164.291 122.194 163.914 122.233 163.511 122.233C162.858 122.233 162.26 122.14 161.717 121.953C161.181 121.759 160.723 121.495 160.343 121.161C159.954 120.835 159.652 120.443 159.434 119.985C159.225 119.519 159.12 119.018 159.12 118.483C159.12 117.792 159.256 117.182 159.527 116.654C159.807 116.118 160.211 115.676 160.739 115.326C161.228 115 161.83 114.752 162.544 114.581C163.266 114.41 164.081 114.325 164.99 114.325H167.016V113.474C167.016 113.148 166.958 112.853 166.842 112.589C166.733 112.325 166.574 112.096 166.364 111.902C166.139 111.708 165.863 111.561 165.537 111.46C165.219 111.351 164.85 111.297 164.431 111.297C164.05 111.297 163.716 111.343 163.429 111.436C163.15 111.529 162.917 111.658 162.73 111.821C162.544 111.968 162.404 112.151 162.311 112.368C162.226 112.578 162.183 112.803 162.183 113.044H159.388C159.395 112.539 159.516 112.054 159.749 111.588C159.982 111.122 160.323 110.71 160.774 110.353C161.208 109.988 161.744 109.701 162.381 109.491C163.025 109.274 163.759 109.165 164.582 109.165C165.32 109.165 166.007 109.258 166.644 109.445C167.288 109.623 167.843 109.891 168.309 110.248C168.775 110.605 169.14 111.06 169.404 111.611C169.668 112.155 169.8 112.783 169.8 113.498V119.1C169.8 119.667 169.839 120.179 169.916 120.637C170.002 121.088 170.122 121.476 170.277 121.802V122H167.436ZM164.046 119.997C164.411 119.997 164.749 119.95 165.06 119.857C165.378 119.764 165.665 119.643 165.921 119.496C166.178 119.348 166.399 119.181 166.585 118.995C166.772 118.809 166.915 118.615 167.016 118.413V116.083H165.223C164.617 116.083 164.093 116.142 163.65 116.258C163.208 116.367 162.854 116.526 162.59 116.736C162.358 116.914 162.183 117.128 162.066 117.376C161.958 117.625 161.903 117.904 161.903 118.215C161.903 118.471 161.95 118.712 162.043 118.937C162.136 119.154 162.272 119.341 162.451 119.496C162.629 119.651 162.851 119.775 163.115 119.869C163.379 119.954 163.689 119.997 164.046 119.997ZM182.425 109.165C182.875 109.165 183.31 109.196 183.73 109.258C184.157 109.32 184.49 109.394 184.731 109.48L184.335 112.228C183.908 112.135 183.485 112.065 183.066 112.019C182.654 111.972 182.243 111.949 181.831 111.949C181.365 111.949 180.946 111.995 180.573 112.089C180.201 112.182 179.871 112.325 179.583 112.519C179.273 112.706 179.009 112.943 178.791 113.23C178.574 113.517 178.391 113.847 178.244 114.22V122H175.46V109.398H178.069L178.186 111.145L178.197 111.436C178.71 110.73 179.323 110.175 180.037 109.771C180.76 109.367 181.555 109.165 182.425 109.165ZM187.666 115.606C187.666 114.651 187.779 113.781 188.004 112.997C188.237 112.205 188.571 111.526 189.006 110.959C189.433 110.392 189.953 109.953 190.566 109.643C191.187 109.324 191.886 109.165 192.663 109.165C193.362 109.165 193.971 109.289 194.491 109.538C195.019 109.779 195.485 110.124 195.889 110.574V104.11H198.673V122H196.145L196.017 120.684C195.613 121.181 195.132 121.565 194.573 121.837C194.014 122.101 193.369 122.233 192.639 122.233C191.871 122.233 191.18 122.074 190.566 121.755C189.953 121.429 189.433 120.979 189.006 120.404C188.579 119.838 188.249 119.166 188.016 118.389C187.783 117.605 187.666 116.759 187.666 115.85V115.606ZM190.45 115.85C190.45 116.409 190.504 116.937 190.613 117.434C190.722 117.931 190.892 118.362 191.125 118.727C191.358 119.108 191.657 119.407 192.022 119.624C192.387 119.834 192.826 119.939 193.338 119.939C193.967 119.939 194.487 119.803 194.899 119.531C195.31 119.251 195.64 118.875 195.889 118.401V112.985C195.64 112.519 195.31 112.151 194.899 111.879C194.495 111.599 193.983 111.46 193.362 111.46C192.841 111.46 192.395 111.568 192.022 111.786C191.657 112.003 191.362 112.302 191.137 112.682C190.896 113.063 190.722 113.506 190.613 114.01C190.504 114.507 190.45 115.039 190.45 115.606V115.85Z" fill="black"/>
<path d="M30.5315 140.801H25.8349V144.787H31.3117V146H24.4059V134.753H31.2422V135.973H25.8349V139.589H30.5315V140.801ZM33.8454 146V137.642H35.1276L35.2281 138.878C35.3517 138.703 35.4855 138.543 35.6297 138.399C35.7791 138.25 35.9361 138.121 36.1009 138.013C36.3481 137.848 36.6159 137.722 36.9043 137.634C37.1978 137.542 37.5068 137.493 37.8312 137.487C38.269 137.487 38.6655 137.549 39.0208 137.673C39.3813 137.796 39.6877 137.99 39.9401 138.252C40.1924 138.515 40.3855 138.85 40.5194 139.256C40.6585 139.658 40.728 140.137 40.728 140.693V146H39.2989V140.724C39.2989 140.353 39.2577 140.039 39.1753 139.782C39.0929 139.524 38.9719 139.316 38.8123 139.156C38.6475 138.996 38.4466 138.88 38.2098 138.808C37.978 138.736 37.7102 138.7 37.4064 138.7C37.1438 138.7 36.8991 138.739 36.6726 138.816C36.446 138.888 36.2374 138.989 36.0469 139.117C35.8924 139.231 35.7482 139.362 35.6143 139.511C35.4855 139.661 35.3722 139.825 35.2744 140.006V146H33.8454ZM46.197 146L42.7596 137.642H44.2272L46.6219 143.945L46.7532 144.463L46.8922 143.945L49.2328 137.642H50.6927L47.2862 146H46.197ZM52.4462 141.744C52.4462 141.141 52.5338 140.582 52.7088 140.068C52.8839 139.547 53.1363 139.097 53.4659 138.716C53.7903 138.335 54.1868 138.036 54.6554 137.82C55.1241 137.598 55.6519 137.487 56.239 137.487C56.8312 137.487 57.3616 137.598 57.8303 137.82C58.304 138.036 58.7057 138.335 59.0353 138.716C59.3597 139.097 59.6095 139.547 59.7846 140.068C59.9597 140.582 60.0472 141.141 60.0472 141.744V141.914C60.0472 142.516 59.9597 143.075 59.7846 143.59C59.6095 144.105 59.3597 144.553 59.0353 144.934C58.7057 145.315 58.3066 145.614 57.838 145.83C57.3694 146.046 56.8415 146.154 56.2544 146.154C55.6622 146.154 55.1292 146.046 54.6554 145.83C54.1868 145.614 53.7903 145.315 53.4659 144.934C53.1363 144.553 52.8839 144.105 52.7088 143.59C52.5338 143.075 52.4462 142.516 52.4462 141.914V141.744ZM53.8753 141.914C53.8753 142.326 53.9242 142.72 54.022 143.096C54.1199 143.466 54.2692 143.793 54.4701 144.077C54.6657 144.36 54.9129 144.584 55.2116 144.749C55.5103 144.913 55.8579 144.996 56.2544 144.996C56.6458 144.996 56.9883 144.913 57.2818 144.749C57.5805 144.584 57.8303 144.36 58.0311 144.077C58.2268 143.793 58.3736 143.466 58.4714 143.096C58.5692 142.72 58.6182 142.326 58.6182 141.914V141.744C58.6182 141.337 58.5667 140.948 58.4637 140.577C58.3658 140.201 58.2191 139.872 58.0234 139.589C57.8225 139.305 57.5728 139.081 57.2741 138.917C56.9806 138.747 56.6355 138.662 56.239 138.662C55.8425 138.662 55.4974 138.747 55.2039 138.917C54.9104 139.081 54.6657 139.305 54.4701 139.589C54.2692 139.872 54.1199 140.201 54.022 140.577C53.9242 140.948 53.8753 141.337 53.8753 141.744V141.914ZM63.0212 149.376C62.8873 149.376 62.7302 149.36 62.55 149.329C62.3698 149.298 62.2333 149.273 62.1406 149.252L62.3723 148.086C62.5011 148.096 62.6272 148.104 62.7508 148.109C62.8796 148.119 62.98 148.124 63.0521 148.124C63.2478 148.124 63.4255 148.07 63.5851 147.962C63.7499 147.854 63.8967 147.725 64.0254 147.576C64.149 147.426 64.2546 147.272 64.3421 147.112C64.4348 146.953 64.5069 146.821 64.5584 146.718L65.13 145.606L61.5304 137.642H63.1293L65.4236 143.034L65.7943 144.046L66.1883 143.065L68.3435 137.642H69.9425L65.7016 147.29C65.6038 147.506 65.4776 147.735 65.3231 147.977C65.1738 148.22 64.991 148.444 64.7747 148.65C64.5584 148.856 64.3061 149.028 64.0177 149.167C63.7293 149.306 63.3971 149.376 63.0212 149.376ZM75.5428 146.154C74.9557 146.154 74.415 146.054 73.9206 145.853C73.4314 145.652 73.0117 145.372 72.6615 145.011C72.3113 144.651 72.0384 144.223 71.8427 143.729C71.647 143.235 71.5492 142.696 71.5492 142.115V141.79C71.5492 141.115 71.6573 140.513 71.8736 139.983C72.0899 139.447 72.3783 138.994 72.7388 138.623C73.0941 138.257 73.4983 137.977 73.9515 137.781C74.4099 137.585 74.8785 137.487 75.3574 137.487C75.9599 137.487 76.4852 137.593 76.9332 137.804C77.3864 138.01 77.7623 138.296 78.061 138.662C78.3597 139.032 78.5811 139.468 78.7253 139.967C78.8747 140.467 78.9493 141.007 78.9493 141.589V142.23H72.9782V142.284C73.0143 142.691 73.0941 143.049 73.2177 143.358C73.3464 143.667 73.5215 143.94 73.743 144.177C73.9695 144.429 74.2425 144.628 74.5618 144.772C74.8811 144.916 75.2338 144.988 75.62 144.988C76.1299 144.988 76.583 144.885 76.9796 144.679C77.3761 144.473 77.7057 144.2 77.9683 143.86L78.8412 144.54C78.5631 144.962 78.146 145.338 77.5898 145.668C77.0388 145.992 76.3565 146.154 75.5428 146.154ZM75.3574 138.662C75.069 138.662 74.7961 138.716 74.5386 138.824C74.2811 138.927 74.0494 139.079 73.8434 139.28C73.6374 139.486 73.4623 139.738 73.3181 140.037C73.1791 140.33 73.0812 140.67 73.0246 141.056H77.5203V140.987C77.5203 140.729 77.4714 140.454 77.3735 140.16C77.2757 139.862 77.1392 139.604 76.9641 139.388C76.789 139.171 76.5676 138.996 76.2998 138.862C76.0372 138.729 75.723 138.662 75.3574 138.662ZM76.0526 134.39H77.7829L75.7127 136.445H74.6313L76.0526 134.39ZM96.2216 143.088H92.4674L91.5636 146H90.1346L93.7651 134.753H94.9625L98.5312 146H97.1099L96.2216 143.088ZM92.8536 141.844H95.8431L94.3599 136.962L92.8536 141.844ZM103.205 146L99.7672 137.642H101.235L103.629 143.945L103.761 144.463L103.9 143.945L106.24 137.642H107.7L104.294 146H103.205ZM113.548 146.154C112.961 146.154 112.42 146.054 111.926 145.853C111.436 145.652 111.017 145.372 110.667 145.011C110.316 144.651 110.043 144.223 109.848 143.729C109.652 143.235 109.554 142.696 109.554 142.115V141.79C109.554 141.115 109.662 140.513 109.879 139.983C110.095 139.447 110.383 138.994 110.744 138.623C111.099 138.257 111.503 137.977 111.957 137.781C112.415 137.585 112.884 137.487 113.362 137.487C113.965 137.487 114.49 137.593 114.938 137.804C115.391 138.01 115.767 138.296 116.066 138.662C116.365 139.032 116.586 139.468 116.73 139.967C116.88 140.467 116.954 141.007 116.954 141.589V142.23H110.983V142.284C111.019 142.691 111.099 143.049 111.223 143.358C111.352 143.667 111.527 143.94 111.748 144.177C111.975 144.429 112.248 144.628 112.567 144.772C112.886 144.916 113.239 144.988 113.625 144.988C114.135 144.988 114.588 144.885 114.985 144.679C115.381 144.473 115.711 144.2 115.973 143.86L116.846 144.54C116.568 144.962 116.151 145.338 115.595 145.668C115.044 145.992 114.362 146.154 113.548 146.154ZM113.362 138.662C113.074 138.662 112.801 138.716 112.544 138.824C112.286 138.927 112.054 139.079 111.848 139.28C111.642 139.486 111.467 139.738 111.323 140.037C111.184 140.33 111.086 140.67 111.03 141.056H115.525V140.987C115.525 140.729 115.476 140.454 115.379 140.16C115.281 139.862 115.144 139.604 114.969 139.388C114.794 139.171 114.573 138.996 114.305 138.862C114.042 138.729 113.728 138.662 113.362 138.662ZM122.918 144.996C123.175 144.996 123.425 144.955 123.667 144.872C123.914 144.79 124.133 144.674 124.324 144.525C124.514 144.38 124.666 144.21 124.779 144.015C124.898 143.814 124.96 143.598 124.965 143.366H126.317C126.312 143.737 126.214 144.092 126.023 144.432C125.838 144.767 125.588 145.06 125.274 145.313C124.96 145.57 124.599 145.776 124.192 145.93C123.786 146.08 123.361 146.154 122.918 146.154C122.284 146.154 121.731 146.041 121.257 145.815C120.783 145.588 120.389 145.282 120.075 144.895C119.756 144.514 119.516 144.074 119.357 143.574C119.197 143.07 119.117 142.539 119.117 141.983V141.659C119.117 141.108 119.197 140.58 119.357 140.075C119.516 139.571 119.756 139.125 120.075 138.739C120.389 138.358 120.783 138.054 121.257 137.827C121.731 137.601 122.284 137.487 122.918 137.487C123.412 137.487 123.865 137.567 124.277 137.727C124.694 137.881 125.055 138.093 125.359 138.36C125.657 138.633 125.892 138.955 126.062 139.326C126.232 139.697 126.317 140.093 126.317 140.516H124.965C124.96 140.263 124.903 140.026 124.795 139.805C124.692 139.578 124.55 139.38 124.37 139.21C124.19 139.04 123.974 138.906 123.721 138.808C123.474 138.711 123.206 138.662 122.918 138.662C122.475 138.662 122.102 138.752 121.798 138.932C121.499 139.107 121.257 139.336 121.072 139.619C120.886 139.908 120.752 140.23 120.67 140.585C120.593 140.94 120.554 141.298 120.554 141.659V141.983C120.554 142.349 120.593 142.712 120.67 143.072C120.752 143.428 120.886 143.747 121.072 144.03C121.252 144.319 121.491 144.553 121.79 144.733C122.094 144.908 122.47 144.996 122.918 144.996ZM145.404 146H143.952L139.588 137.596L139.564 146H138.12V134.753H139.572L143.936 143.142L143.96 134.753H145.404V146ZM147.459 141.744C147.459 141.141 147.546 140.582 147.722 140.068C147.897 139.547 148.149 139.097 148.479 138.716C148.803 138.335 149.2 138.036 149.668 137.82C150.137 137.598 150.665 137.487 151.252 137.487C151.844 137.487 152.374 137.598 152.843 137.82C153.317 138.036 153.718 138.335 154.048 138.716C154.372 139.097 154.622 139.547 154.797 140.068C154.972 140.582 155.06 141.141 155.06 141.744V141.914C155.06 142.516 154.972 143.075 154.797 143.59C154.622 144.105 154.372 144.553 154.048 144.934C153.718 145.315 153.319 145.614 152.851 145.83C152.382 146.046 151.854 146.154 151.267 146.154C150.675 146.154 150.142 146.046 149.668 145.83C149.2 145.614 148.803 145.315 148.479 144.934C148.149 144.553 147.897 144.105 147.722 143.59C147.546 143.075 147.459 142.516 147.459 141.914V141.744ZM148.888 141.914C148.888 142.326 148.937 142.72 149.035 143.096C149.133 143.466 149.282 143.793 149.483 144.077C149.678 144.36 149.926 144.584 150.224 144.749C150.523 144.913 150.871 144.996 151.267 144.996C151.659 144.996 152.001 144.913 152.295 144.749C152.593 144.584 152.843 144.36 153.044 144.077C153.239 143.793 153.386 143.466 153.484 143.096C153.582 142.72 153.631 142.326 153.631 141.914V141.744C153.631 141.337 153.579 140.948 153.476 140.577C153.379 140.201 153.232 139.872 153.036 139.589C152.835 139.305 152.585 139.081 152.287 138.917C151.993 138.747 151.648 138.662 151.252 138.662C150.855 138.662 150.51 138.747 150.217 138.917C149.923 139.081 149.678 139.305 149.483 139.589C149.282 139.872 149.133 140.201 149.035 140.577C148.937 140.948 148.888 141.337 148.888 141.744V141.914ZM162.87 146L162.785 144.849C162.506 145.261 162.159 145.583 161.742 145.815C161.325 146.041 160.843 146.154 160.297 146.154C159.859 146.154 159.463 146.088 159.108 145.954C158.752 145.815 158.448 145.601 158.196 145.313C157.944 145.024 157.748 144.658 157.609 144.216C157.475 143.768 157.408 143.232 157.408 142.609V137.642H158.837V142.624C158.837 143.078 158.873 143.453 158.945 143.752C159.017 144.051 159.126 144.288 159.27 144.463C159.414 144.643 159.589 144.769 159.795 144.841C160.006 144.913 160.248 144.949 160.521 144.949C160.841 144.949 161.126 144.913 161.379 144.841C161.631 144.764 161.85 144.658 162.035 144.525C162.19 144.416 162.324 144.288 162.437 144.138C162.555 143.984 162.653 143.817 162.73 143.636V137.642H164.167V146H162.87ZM172.417 143.783C172.417 143.613 172.384 143.461 172.317 143.327C172.25 143.188 172.136 143.062 171.977 142.949C171.817 142.835 171.606 142.732 171.343 142.64C171.081 142.542 170.754 142.454 170.362 142.377C169.883 142.279 169.446 142.161 169.049 142.022C168.658 141.883 168.323 141.715 168.045 141.52C167.762 141.329 167.543 141.105 167.388 140.848C167.234 140.585 167.157 140.281 167.157 139.936C167.157 139.596 167.236 139.28 167.396 138.986C167.556 138.687 167.78 138.427 168.068 138.206C168.357 137.984 168.699 137.809 169.096 137.681C169.497 137.552 169.938 137.487 170.416 137.487C170.931 137.487 171.395 137.554 171.807 137.688C172.219 137.822 172.569 138.008 172.857 138.244C173.146 138.481 173.367 138.759 173.522 139.079C173.681 139.393 173.761 139.733 173.761 140.098H172.332C172.332 139.918 172.286 139.743 172.193 139.573C172.1 139.398 171.972 139.244 171.807 139.11C171.642 138.976 171.441 138.868 171.204 138.785C170.973 138.703 170.71 138.662 170.416 138.662C170.113 138.662 169.845 138.695 169.613 138.762C169.386 138.829 169.199 138.919 169.049 139.032C168.895 139.146 168.779 139.277 168.702 139.426C168.624 139.576 168.586 139.73 168.586 139.89C168.586 140.055 168.617 140.201 168.678 140.33C168.74 140.459 168.848 140.575 169.003 140.678C169.152 140.781 169.353 140.873 169.605 140.956C169.863 141.038 170.187 141.118 170.579 141.195C171.094 141.303 171.555 141.43 171.961 141.574C172.368 141.713 172.711 141.88 172.989 142.076C173.267 142.277 173.478 142.508 173.622 142.771C173.772 143.034 173.846 143.338 173.846 143.683C173.846 144.053 173.761 144.391 173.591 144.695C173.426 144.998 173.195 145.258 172.896 145.475C172.597 145.691 172.239 145.858 171.822 145.977C171.405 146.095 170.949 146.154 170.455 146.154C169.889 146.154 169.384 146.08 168.941 145.93C168.498 145.776 168.125 145.573 167.821 145.32C167.512 145.073 167.275 144.785 167.11 144.455C166.951 144.125 166.871 143.783 166.871 143.428H168.3C168.321 143.721 168.398 143.968 168.532 144.169C168.671 144.37 168.843 144.532 169.049 144.656C169.25 144.78 169.474 144.867 169.721 144.919C169.968 144.97 170.213 144.996 170.455 144.996C170.836 144.996 171.168 144.952 171.452 144.864C171.735 144.772 171.956 144.646 172.116 144.486C172.214 144.388 172.288 144.28 172.34 144.162C172.391 144.043 172.417 143.917 172.417 143.783Z" fill="black"/>
</svg>
